<svg width="155" height="107" viewBox="0 0 155 107" fill="none" xmlns="http://www.w3.org/2000/svg">
<path d="M109.422 21.3452C109.422 32.5568 100.505 41.8279 89.4143 42.4748C88.9794 42.4748 88.5444 42.4748 88.1095 42.4748C84.4125 42.4748 80.7155 41.3967 77.671 39.6719C71.1469 36.0065 66.7975 29.1071 66.7975 21.1296C66.7975 15.7394 68.7547 10.7804 72.2342 7.11506C76.1487 2.8029 81.8029 0 88.1095 0C96.3733 0 103.55 4.74337 107.029 11.6428C108.552 14.6613 109.422 17.8955 109.422 21.3452Z" fill="url(#paint0_linear_4930_2165)"/>
<path opacity="0.1" d="M109.234 21.346C109.234 32.5576 100.318 41.8287 89.2273 42.4755C85.0954 41.8287 81.1809 40.7507 77.4839 39.8882C70.9599 36.2229 66.6105 29.3234 66.6105 21.346C66.6105 15.9558 68.5677 10.9968 72.0472 7.33144C79.2237 7.11583 87.4875 7.76266 95.9689 9.27191C99.8833 9.91874 103.58 10.7812 107.06 11.6436C108.365 14.6621 109.234 17.8962 109.234 21.346Z" fill="black"/>
<path d="M135.237 35.6156C136.878 26.4716 116.642 15.2536 90.0368 10.5596C63.432 5.86559 40.5341 9.47305 38.8927 18.6171C37.2514 27.7611 57.4883 38.9791 84.0931 43.6731C110.698 48.3671 133.596 44.7597 135.237 35.6156Z" fill="url(#paint1_linear_4930_2165)"/>
<path d="M83.2545 15.7797C83.3755 14.2363 80.9498 12.7906 77.8364 12.5506C74.723 12.3106 72.101 13.3672 71.98 14.9106C71.859 16.4539 74.2847 17.8996 77.3981 18.1396C80.5115 18.3796 83.1335 17.323 83.2545 15.7797Z" fill="white"/>
<path d="M55.8911 19.7432C58.8846 18.862 60.951 16.9448 60.5067 15.4609C60.0623 13.977 57.2754 13.4883 54.2819 14.3694C51.2885 15.2506 49.222 17.1678 49.6664 18.6517C50.1108 20.1356 52.8977 20.6243 55.8911 19.7432Z" fill="white"/>
<path d="M105.247 21.4529C105.521 19.9289 103.251 18.2537 100.176 17.7113C97.1019 17.1688 94.3879 17.9646 94.1143 19.4886C93.8408 21.0126 96.1113 22.6878 99.1856 23.2302C102.26 23.7726 104.974 22.9769 105.247 21.4529Z" fill="white"/>
<path d="M121.757 32.7252C122.472 31.3493 120.802 29.0837 118.027 27.6648C115.251 26.2459 112.421 26.211 111.706 27.5869C110.99 28.9628 112.66 31.2284 115.436 32.6473C118.211 34.0662 121.041 34.1011 121.757 32.7252Z" fill="white"/>
<path d="M84.353 29.0672L63.9108 28.8516L34.7986 83.0002L116.51 91.5935L107.405 36.3978L84.353 29.0672Z" fill="url(#paint2_linear_4930_2165)"/>
<path opacity="0.5" d="M127.191 106H22.5881C25.4152 103.466 29.5472 100.932 34.3315 99.0321C36.9411 98.082 39.9857 96.8151 43.0303 96.1817C52.164 93.648 63.2549 92.0645 74.9983 92.0645C89.1338 92.0645 102.182 94.2814 112.186 97.7653C115.665 99.0321 118.71 100.299 121.319 101.883C123.711 103.149 125.669 104.416 127.191 106Z" fill="url(#paint3_linear_4930_2165)"/>
<path opacity="0.3" d="M44.4786 97.7142C44.6157 99.0006 42.374 100.54 39.779 100.817C37.1841 101.093 34.9074 100.251 34.5542 98.9881C37.0806 98.0686 40.0167 96.8885 42.9985 96.1373C43.9091 96.4739 44.4101 97.071 44.4786 97.7142Z" fill="url(#paint4_linear_4930_2165)"/>
<path opacity="0.3" d="M62.8199 96.8076C66.303 96.8076 69.1265 96.1319 69.1265 95.2983C69.1265 94.4648 66.303 93.7891 62.8199 93.7891C59.3369 93.7891 56.5133 94.4648 56.5133 95.2983C56.5133 96.1319 59.3369 96.8076 62.8199 96.8076Z" fill="url(#paint5_linear_4930_2165)"/>
<path opacity="0.3" d="M96.8142 96.6837C96.8856 95.6144 94.1262 94.5624 90.6508 94.3341C87.1755 94.1057 84.3002 94.7874 84.2287 95.8568C84.1572 96.9261 86.9166 97.9781 90.392 98.2065C93.8674 98.4348 96.7427 97.7531 96.8142 96.6837Z" fill="url(#paint6_linear_4930_2165)"/>
<path opacity="0.3" d="M120.757 101.542C119.893 101.443 118.855 101.476 117.584 101.112C114.152 100.5 111.467 99.1048 111.59 98.0338C111.615 97.8197 111.615 97.8197 111.856 97.6304C115.213 98.8858 118.266 100.1 120.757 101.542Z" fill="url(#paint7_linear_4930_2165)"/>
<path d="M107.275 36.9544C108.011 32.8513 98.8312 27.8001 86.7704 25.6721C74.7095 23.5442 64.3353 25.1453 63.5988 29.2484C62.8623 33.3515 72.0425 38.4028 84.1033 40.5307C96.1642 42.6587 106.538 41.0575 107.275 36.9544Z" fill="url(#paint8_linear_4930_2165)"/>
<path d="M29.182 56.8242C29.182 56.8242 21.6699 58.7315 23.9463 60.2573C26.2227 61.7069 31.6101 64.2245 36.694 62.5461C41.7779 60.8677 36.694 58.5026 36.7699 58.5026C36.8458 58.5026 29.182 56.8242 29.182 56.8242Z" fill="#CED7E2"/>
<path d="M20.0004 56.2153C22.732 57.0545 31.1546 55.6813 36.5421 52.1719C40.7913 57.436 42.3848 58.8092 43.9024 58.9618C41.5501 61.3268 33.7345 65.1414 29.3335 60.1825C24.1737 63.463 20.0004 56.2153 20.0004 56.2153Z" fill="#E9EEF8"/>
<path d="M110.228 63.083C113.112 63.2356 120.927 59.7262 125.177 54.9961C130.64 59.0395 132.461 59.955 134.054 59.7262C132.309 62.6252 126.998 68.9574 119.486 69.4152C114.022 66.2109 110.228 63.083 110.228 63.083Z" fill="#E9EEF8"/>
<path d="M85.2393 63.177C84.6689 60.3465 79.3232 53.6514 73.6838 50.7144C76.2389 44.4161 76.6719 42.4243 76.0533 40.9381C79.2958 41.9062 86.7514 45.473 89.066 52.6342C87.3236 58.7235 85.2393 63.177 85.2393 63.177Z" fill="white"/>
<path d="M153.027 106H146.424H9.53086H1" stroke="#D5DAE8" stroke-width="2" stroke-miterlimit="10" stroke-linecap="round" stroke-linejoin="round"/>
<path d="M59.9928 88.6781V92.9903H57.3832V97.0869H52.3814V92.9903H41.5079V88.0313L51.5115 74.2324H57.3832V88.6781H59.9928ZM52.5989 79.8382L46.2923 88.6781H52.5989V79.8382Z" fill="url(#paint9_linear_4930_2165)"/>
<path d="M75.6507 97.5177C70.4315 97.5177 65.8646 92.9899 65.8646 85.6592C65.8646 78.3285 70.4315 73.8008 75.6507 73.8008C80.87 73.8008 85.4369 78.3285 85.4369 85.6592C85.6543 92.7743 81.0875 97.5177 75.6507 97.5177ZM75.6507 92.9899C78.0429 92.9899 80.6525 90.6182 80.6525 85.4436C80.6525 80.4846 78.2604 77.8973 75.6507 77.8973C73.2586 77.8973 70.649 80.269 70.649 85.4436C70.8664 90.6182 73.2586 92.9899 75.6507 92.9899Z" fill="url(#paint10_linear_4930_2165)"/>
<path d="M110.228 88.6781V92.9903H107.619V97.0869H102.617V92.9903H91.7434V88.0313L101.747 74.2324H107.401V88.6781H110.228ZM102.617 79.8382L96.3103 88.6781H102.617V79.8382Z" fill="url(#paint11_linear_4930_2165)"/>
<path d="M58.0354 88.6781V92.9903H55.4258V97.0869H50.424V92.9903H39.5505V88.0313L49.5541 74.2324H55.2083V88.6781H58.0354ZM50.6415 79.8382L44.3349 88.6781H50.6415V79.8382Z" fill="url(#paint12_linear_4930_2165)"/>
<path d="M73.6932 97.5177C68.474 97.5177 63.9071 92.9899 63.9071 85.6592C63.9071 78.3285 68.474 73.8008 73.6932 73.8008C78.9125 73.8008 83.4794 78.3285 83.4794 85.6592C83.6968 92.7743 79.13 97.5177 73.6932 97.5177ZM73.6932 92.9899C76.0854 92.9899 78.695 90.6182 78.695 85.4436C78.695 80.4846 76.3029 77.8973 73.6932 77.8973C71.3011 77.8973 68.6914 80.269 68.6914 85.4436C68.9089 90.6182 71.3011 92.9899 73.6932 92.9899Z" fill="url(#paint13_linear_4930_2165)"/>
<path d="M108.271 88.6781V92.9903H105.661V97.0869H100.66V92.9903H89.7861V88.0313L99.7897 74.2324H105.444V88.6781H108.271ZM100.66 79.8382L94.353 88.6781H100.66V79.8382Z" fill="url(#paint14_linear_4930_2165)"/>
<defs>
<linearGradient id="paint0_linear_4930_2165" x1="88.1129" y1="1.47552" x2="88.1129" y2="25.3162" gradientUnits="userSpaceOnUse">
<stop stop-color="#B0BACC"/>
<stop offset="1" stop-color="#969EAE"/>
</linearGradient>
<linearGradient id="paint1_linear_4930_2165" x1="42.2401" y1="19.205" x2="96.2885" y2="28.9064" gradientUnits="userSpaceOnUse">
<stop stop-color="#E3E7EE"/>
<stop offset="1" stop-color="#D1D6DF"/>
</linearGradient>
<linearGradient id="paint2_linear_4930_2165" x1="75.6595" y1="31.0311" x2="75.6595" y2="66.2475" gradientUnits="userSpaceOnUse">
<stop stop-color="#BDC4D1" stop-opacity="0.53"/>
<stop offset="1" stop-color="#5D7CB8" stop-opacity="0"/>
</linearGradient>
<linearGradient id="paint3_linear_4930_2165" x1="74.8895" y1="92.0645" x2="74.8895" y2="106" gradientUnits="userSpaceOnUse">
<stop stop-color="#B6BFD7"/>
<stop offset="1" stop-color="#838DA7" stop-opacity="0"/>
</linearGradient>
<linearGradient id="paint4_linear_4930_2165" x1="39.3389" y1="96.6777" x2="39.5953" y2="99.0844" gradientUnits="userSpaceOnUse">
<stop stop-color="#B0BACC"/>
<stop offset="1" stop-color="#969EAE"/>
</linearGradient>
<linearGradient id="paint5_linear_4930_2165" x1="62.8209" y1="93.8939" x2="62.8209" y2="95.5882" gradientUnits="userSpaceOnUse">
<stop stop-color="#B0BACC"/>
<stop offset="1" stop-color="#969EAE"/>
</linearGradient>
<linearGradient id="paint6_linear_4930_2165" x1="84.6659" y1="95.8852" x2="91.7295" y2="96.3574" gradientUnits="userSpaceOnUse">
<stop stop-color="#B0BACC"/>
<stop offset="1" stop-color="#969EAE"/>
</linearGradient>
<linearGradient id="paint7_linear_4930_2165" x1="116.382" y1="98.2537" x2="116.195" y2="99.87" gradientUnits="userSpaceOnUse">
<stop stop-color="#B0BACC"/>
<stop offset="1" stop-color="#969EAE"/>
</linearGradient>
<linearGradient id="paint8_linear_4930_2165" x1="85.4368" y1="38.8352" x2="88.6556" y2="27.7251" gradientUnits="userSpaceOnUse">
<stop stop-color="#B0BACC"/>
<stop offset="1" stop-color="#969EAE"/>
</linearGradient>
<linearGradient id="paint9_linear_4930_2165" x1="50.7518" y1="75.0264" x2="50.7518" y2="87.8543" gradientUnits="userSpaceOnUse">
<stop stop-color="#D6DCE6"/>
<stop offset="1" stop-color="#C4CBDA"/>
</linearGradient>
<linearGradient id="paint10_linear_4930_2165" x1="75.656" y1="74.6247" x2="75.656" y2="87.9367" gradientUnits="userSpaceOnUse">
<stop stop-color="#D6DCE6"/>
<stop offset="1" stop-color="#C4CBDA"/>
</linearGradient>
<linearGradient id="paint11_linear_4930_2165" x1="100.987" y1="75.0264" x2="100.987" y2="87.8543" gradientUnits="userSpaceOnUse">
<stop stop-color="#D6DCE6"/>
<stop offset="1" stop-color="#C4CBDA"/>
</linearGradient>
<linearGradient id="paint12_linear_4930_2165" x1="48.7944" y1="75.0264" x2="48.7944" y2="87.8543" gradientUnits="userSpaceOnUse">
<stop stop-color="#EAEEF5"/>
<stop offset="1" stop-color="#D4DAE4"/>
</linearGradient>
<linearGradient id="paint13_linear_4930_2165" x1="73.6985" y1="74.6247" x2="73.6985" y2="87.9367" gradientUnits="userSpaceOnUse">
<stop stop-color="#EAEEF5"/>
<stop offset="1" stop-color="#D4DAE4"/>
</linearGradient>
<linearGradient id="paint14_linear_4930_2165" x1="99.03" y1="75.0264" x2="99.03" y2="87.8543" gradientUnits="userSpaceOnUse">
<stop stop-color="#EAEEF5"/>
<stop offset="1" stop-color="#D4DAE4"/>
</linearGradient>
</defs>
</svg>
