<svg width="97" height="16" viewBox="0 0 97 16" fill="none" xmlns="http://www.w3.org/2000/svg">
<path fill-rule="evenodd" clip-rule="evenodd" d="M69.8638 7.8024C70.2817 7.69546 70.6095 7.48323 70.8479 7.16581C71.086 6.84875 71.2052 6.46828 71.2052 6.02464C71.2052 5.40534 70.9689 4.91605 70.4959 4.55664C70.0233 4.19734 69.3762 4.01758 68.5552 4.01758H65.9749C65.5114 4.01758 65.1357 4.40946 65.1357 4.89299V11.1706C65.1357 11.654 65.5114 12.0459 65.9749 12.0459H68.6541C69.5338 12.0459 70.2282 11.8491 70.7379 11.4553C71.2474 11.0616 71.502 10.5205 71.502 9.8324C71.502 9.29734 71.3572 8.85005 71.0679 8.49052C70.7781 8.13123 70.3768 7.90181 69.8638 7.8024ZM66.6091 5.34805H68.4783C68.8594 5.34052 69.1581 5.42075 69.3745 5.58887C69.5905 5.75711 69.6989 5.99417 69.6989 6.29993C69.6989 6.61358 69.5905 6.85817 69.3745 7.03393C69.1581 7.20993 68.8594 7.2977 68.4783 7.2977H66.6091V5.34805ZM69.5779 10.4403C69.314 10.6315 68.9474 10.7232 68.4783 10.7156H66.6091V8.59381H68.4783C68.9474 8.58628 69.314 8.67605 69.5779 8.86334C69.8418 9.05076 69.9738 9.30876 69.9738 9.63746C69.9738 9.98146 69.8418 10.2492 69.5779 10.4403Z" fill="black"/>
<path fill-rule="evenodd" clip-rule="evenodd" d="M88.067 4.01758H86.8245C86.7729 4.01758 86.731 4.06123 86.731 4.11511V9.55711L83.0407 4.40699C82.865 4.16193 82.5889 4.01758 82.2955 4.01758C81.7817 4.01758 81.3652 4.45205 81.3652 4.98793V11.9484C81.3652 12.0023 81.4071 12.0459 81.4586 12.0459H82.7122C82.7637 12.0459 82.8057 12.0023 82.8057 11.9484V6.51781L86.4682 11.6328C86.6488 11.885 86.9299 12.0464 87.2317 12.0459C87.7449 12.0451 88.1605 11.6111 88.1605 11.0757V4.11511C88.1605 4.06123 88.1187 4.01758 88.067 4.01758Z" fill="black"/>
<mask id="mask0_4754_5755" style="mask-type:luminance" maskUnits="userSpaceOnUse" x="90" y="4" width="7" height="9">
<path fill-rule="evenodd" clip-rule="evenodd" d="M90.1616 4.01758H96.9469V12.046H90.1616V4.01758Z" fill="white"/>
</mask>
<g mask="url(#mask0_4754_5755)">
<path fill-rule="evenodd" clip-rule="evenodd" d="M96.9295 11.8922L93.8891 7.4124L96.7049 4.18075C96.7595 4.11805 96.7169 4.01758 96.6358 4.01758H95.1511C95.1247 4.01758 95.0996 4.02934 95.0819 4.0497L91.6351 8.02028V4.11523C91.6351 4.06123 91.5933 4.01758 91.5416 4.01758H90.2551C90.2035 4.01758 90.1616 4.06123 90.1616 4.11523V11.9485C90.1616 12.0024 90.2035 12.046 90.2551 12.046H91.5416C91.5933 12.046 91.6351 12.0024 91.6351 11.9485V9.99299L92.8446 8.60534L95.2356 12.0062C95.2533 12.0312 95.2813 12.046 95.311 12.046H96.8533C96.9291 12.046 96.9735 11.9568 96.9295 11.8922Z" fill="black"/>
</g>
<path fill-rule="evenodd" clip-rule="evenodd" d="M34.8784 4.01758C34.4758 4.01758 34.1108 4.26464 33.9467 4.64817L31.6875 9.92981L29.4072 4.64499C29.2424 4.26311 28.8782 4.01758 28.4768 4.01758H28.4744C27.9109 4.01758 27.4541 4.49405 27.4541 5.08181V11.9484C27.4541 12.0023 27.4959 12.0459 27.5476 12.0459H28.7021C28.7537 12.0459 28.7955 12.0023 28.7955 11.9484V6.28852L31.0081 11.5788C31.0996 11.7972 31.2794 11.9678 31.5015 12.024C31.8537 12.1131 32.2004 11.923 32.3377 11.5932L34.5463 6.28852V11.9484C34.5463 12.0023 34.5881 12.0459 34.6398 12.0459H35.8052C35.8569 12.0459 35.8987 12.0023 35.8987 11.9484V5.08181C35.8987 4.49405 35.4419 4.01758 34.8784 4.01758Z" fill="#69BA31"/>
<path fill-rule="evenodd" clip-rule="evenodd" d="M43.5789 10.704H39.373V8.68546H43.0181C43.0698 8.68546 43.1116 8.64181 43.1116 8.58805V7.44111C43.1116 7.38723 43.0698 7.3437 43.0181 7.3437H39.373V5.35946H43.4469C43.4986 5.35946 43.5404 5.31581 43.5404 5.26193V4.11511C43.5404 4.06123 43.4986 4.01758 43.4469 4.01758H38.7388C38.2754 4.01758 37.8997 4.40946 37.8997 4.89287V11.1706C37.8997 11.654 38.2754 12.0459 38.7388 12.0459H43.5789C43.6306 12.0459 43.6724 12.0023 43.6724 11.9484V10.8016C43.6724 10.7477 43.6306 10.704 43.5789 10.704Z" fill="#69BA31"/>
<path fill-rule="evenodd" clip-rule="evenodd" d="M54.7174 4.01758H53.4309C53.3793 4.01758 53.3375 4.06123 53.3375 4.11511V11.9484C53.3375 12.0023 53.3793 12.0459 53.4309 12.0459H54.7174C54.7691 12.0459 54.8109 12.0023 54.8109 11.9484V4.11511C54.8109 4.06123 54.7691 4.01758 54.7174 4.01758Z" fill="#69BA31"/>
<path fill-rule="evenodd" clip-rule="evenodd" d="M50.1142 9.38252C50.2469 9.32558 50.3741 9.25875 50.489 9.1797C50.7853 8.9757 51.0356 8.70311 51.2209 8.38734C51.481 7.94405 51.6111 7.40875 51.6111 6.7817C51.6111 5.90252 51.34 5.22193 50.7976 4.74017C50.2551 4.25852 49.4854 4.01758 48.4885 4.01758H46.117C45.6535 4.01758 45.2778 4.40946 45.2778 4.89299V11.9485C45.2778 12.0024 45.3197 12.046 45.3712 12.046H46.6576C46.7094 12.046 46.7512 12.0024 46.7512 11.9485V9.68334H48.4885H48.4904L50.1235 12.0062C50.1411 12.0312 50.1691 12.046 50.1989 12.046H51.7412C51.817 12.046 51.8613 11.9568 51.8174 11.8922L50.1142 9.38252ZM49.764 7.95146C49.4707 8.20381 49.0454 8.33005 48.4885 8.33005H46.7512V5.35958H48.4885C49.0454 5.35958 49.4707 5.48193 49.764 5.72652C50.0571 5.97134 50.2039 6.3384 50.2039 6.82758C50.2039 7.32464 50.0571 7.69922 49.764 7.95146Z" fill="#69BA31"/>
<path fill-rule="evenodd" clip-rule="evenodd" d="M19.6538 11.987L22.292 5.71275L24.9299 11.987C24.9448 12.0224 24.9784 12.0453 25.0155 12.0453H26.2724C26.3397 12.0453 26.385 11.9731 26.3579 11.9086L23.3415 4.73475C22.9405 3.7811 21.6434 3.7811 21.2422 4.73487L18.226 11.9086C18.1989 11.9731 18.244 12.0453 18.3116 12.0453H19.5682C19.6053 12.0453 19.6389 12.0224 19.6538 11.987Z" fill="#69BA31"/>
<path fill-rule="evenodd" clip-rule="evenodd" d="M57.3355 11.987L59.9737 5.71275L62.6116 11.987C62.6266 12.0224 62.6601 12.0453 62.6972 12.0453H63.9541C64.0214 12.0453 64.0668 11.9731 64.0396 11.9086L61.0232 4.73475C60.6222 3.7811 59.3251 3.7811 58.9239 4.73487L55.9078 11.9086C55.8806 11.9731 55.9257 12.0453 55.9933 12.0453H57.2499C57.287 12.0453 57.3206 12.0224 57.3355 11.987Z" fill="#69BA31"/>
<path fill-rule="evenodd" clip-rule="evenodd" d="M73.565 11.987L76.2032 5.71275L78.8411 11.987C78.8561 12.0224 78.8896 12.0453 78.9267 12.0453H80.1836C80.2509 12.0453 80.2962 11.9731 80.2691 11.9086L77.2527 4.73475C76.8517 3.7811 75.5546 3.7811 75.1534 4.73487L72.1373 11.9086C72.1101 11.9731 72.1552 12.0453 72.2228 12.0453H73.4794C73.5165 12.0453 73.5501 12.0224 73.565 11.987Z" fill="black"/>
<path fill-rule="evenodd" clip-rule="evenodd" d="M4.95006 11.987L7.58812 5.71275L10.2262 11.987C10.2411 12.0224 10.2747 12.0453 10.3118 12.0453H11.5685C11.636 12.0453 11.6812 11.9731 11.6541 11.9086L8.63775 4.73475C8.23667 3.7811 6.93957 3.7811 6.53849 4.73487L3.52213 11.9086C3.49506 11.9731 3.54029 12.0453 3.60774 12.0453H4.86445C4.90156 12.0453 4.93517 12.0224 4.95006 11.987Z" fill="#69BA31"/>
<mask id="mask1_4754_5755" style="mask-type:luminance" maskUnits="userSpaceOnUse" x="0" y="0" width="16" height="16">
<path fill-rule="evenodd" clip-rule="evenodd" d="M0 0.117188H15.1761V15.9468H0V0.117188Z" fill="white"/>
</mask>
<g mask="url(#mask1_4754_5755)">
<path fill-rule="evenodd" clip-rule="evenodd" d="M13.7544 15.9468H1.42184C0.637831 15.9468 0 15.2815 0 14.4638V1.60025C0 0.782482 0.637831 0.117188 1.42184 0.117188H13.7544C14.5384 0.117188 15.1761 0.782482 15.1761 1.60025V14.4638C15.1761 15.2815 14.5384 15.9468 13.7544 15.9468ZM1.42184 0.604599C0.895445 0.604599 0.467292 1.05119 0.467292 1.60025V14.4638C0.467292 15.0128 0.895445 15.4594 1.42184 15.4594H13.7544C14.2807 15.4594 14.7089 15.0128 14.7089 14.4638V1.60025C14.7089 1.05119 14.2807 0.604599 13.7544 0.604599H1.42184Z" fill="#69BA31"/>
</g>
</svg>
