<svg width="60" height="14" viewBox="0 0 60 14" fill="none" xmlns="http://www.w3.org/2000/svg">
<path d="M22.0176 5.31125C21.0683 4.65185 19.8989 4.30481 18.6613 4.30481C16.4914 4.30481 15.1358 5.34655 15.1358 7.09891C15.1358 8.83504 16.6952 9.46008 17.9833 9.8421C18.8816 10.1026 19.6278 10.3453 19.6278 10.8317C19.6278 11.3174 19.1698 11.5258 18.3727 11.5258C17.5936 11.5258 16.4409 11.3174 15.5424 10.6752L14.8473 12.3585C15.8307 13.1575 17.1188 13.4355 18.4918 13.4355C20.814 13.4355 22.187 12.3763 22.187 10.6402C22.187 8.87033 20.6445 8.27965 19.1698 7.81079C18.3054 7.5331 17.6951 7.29008 17.6951 6.78686C17.6951 6.37048 18.1693 6.179 18.7458 6.179C19.6108 6.179 20.3058 6.40453 21.0683 6.80436L22.0176 5.31125Z" fill="#ED1C28"/>
<path d="M29.9726 12.9472C29.2649 13.2665 28.5215 13.4258 27.6232 13.4258C25.6539 13.4258 24.5136 12.3106 24.5136 10.3821V6.34916H23.2352V4.29786H24.6003V2.27998C25.0664 2.06882 25.5676 1.90889 26.0343 1.90889C26.7596 1.90889 27.1919 2.43959 27.1919 3.18302V4.29786H29.817V6.34916H27.1919V9.92292C27.1919 10.7363 27.6061 11.2495 28.366 11.2495C28.7631 11.2495 29.3122 11.1921 29.6752 10.9622L29.9726 12.9472Z" fill="#ED1C28"/>
<path d="M35.2175 6.36617C35.6653 6.36617 35.992 6.51705 36.1732 6.77568C36.2799 6.92843 36.3364 7.11897 36.3364 7.33794C36.3364 8.06763 35.7263 8.48463 34.6407 8.48463C34.285 8.48463 33.8955 8.46714 33.5053 8.43216C33.641 7.12991 34.2682 6.36617 35.2175 6.36617ZM35.4042 11.4002C34.3024 11.4002 33.7429 10.862 33.5559 9.94181C33.929 9.97711 34.3024 10.0118 34.6748 10.0118C37.3027 10.0118 38.8792 8.97036 38.8792 7.21706C38.8792 5.39409 37.6245 4.28333 35.4722 4.28333C34.9115 4.28333 34.396 4.35205 33.9302 4.48449C32.0146 5.02925 30.929 6.65574 30.929 9.0572C30.929 11.7991 32.5222 13.4141 35.2175 13.4141C36.6414 13.4141 37.8115 13.0667 38.8618 12.3895L37.828 10.7059C37.1502 11.1575 36.3705 11.4002 35.4042 11.4002Z" fill="#ED1C28"/>
<path d="M40.6851 12.7137C40.6851 10.6375 40.6851 4.65785 40.6851 4.65785C41.1512 4.44576 41.652 4.28645 42.1181 4.28645C42.6285 4.28645 42.9103 4.4923 43.1248 4.98115C43.1687 5.08111 43.1876 5.11765 43.2218 5.0911C43.9581 4.51541 44.958 4.28645 45.6944 4.28645C46.1611 4.28645 46.6275 4.41015 47.0247 4.58694L46.784 6.915C46.4896 6.7204 45.5736 6.69228 45.1594 6.69228C44.0536 6.69228 43.3627 7.45258 43.3627 9.66381V13.4141H40.6851C40.6851 13.4141 40.6851 13.1504 40.6851 12.7137Z" fill="#ED1C28"/>
<path d="M48.0095 13.4141H50.6884V4.28645H48.0095V13.4141Z" fill="#ED1C28"/>
<path d="M55.5922 11.4997C55.2051 11.4997 54.9394 11.3697 54.7829 11.1545C54.6655 10.9927 54.6094 10.7837 54.6094 10.5454C54.6094 9.83384 55.2365 9.41746 56.3545 9.41746C56.6598 9.41746 56.9807 9.41746 57.3367 9.43433C57.3367 10.9271 56.4902 11.4997 55.5922 11.4997ZM56.2865 4.27687C54.8631 4.27687 53.7153 4.60111 52.6318 5.278C52.6318 5.278 52.4274 5.67377 52.6318 6.14575C53.093 7.21217 53.7049 6.8492 53.7049 6.8492C54.383 6.39846 55.1002 6.29007 55.8463 6.29007C56.9475 6.29007 57.2855 6.93572 57.3367 7.89C56.9807 7.87282 56.6257 7.87282 56.2865 7.87282C55.6303 7.87282 55.044 7.93841 54.5334 8.06461C52.974 8.45038 52.1178 9.40278 52.1178 10.7881C52.1178 12.454 53.1522 13.4782 54.8631 13.4782C55.7734 13.4782 56.5573 13.3654 57.412 12.662C57.4306 12.647 57.4554 12.652 57.4679 12.6732C57.8684 13.4092 58.1307 13.4863 58.7695 13.4863C59.2432 13.4863 59.5067 13.3217 59.9643 13.1137V7.64729C59.9643 5.56475 58.6084 4.27687 56.2865 4.27687Z" fill="#ED1C28"/>
<path d="M2.41335 7.50665C1.83247 7.39607 1.44928 6.82445 1.55711 6.22939C1.66518 5.63465 2.22368 5.24201 2.80444 5.35321C3.38533 5.46316 3.76851 6.03479 3.66081 6.62984C3.55261 7.2249 2.99424 7.61754 2.41335 7.50665Z" fill="#ED1C28"/>
<path d="M9.20648 9.54858C9.20648 9.92779 9.08291 10.3357 8.91825 10.7146L5.8488 10.7149L4.9612 13.4772L2.25005 13.4922L3.26598 10.7146H0.823875C0.659338 10.3357 0.535767 9.92779 0.535767 9.54858C0.535767 8.95915 0.947568 8.55901 1.52345 8.55901L4.02071 8.58306L5.1628 5.51845C5.59129 5.4894 6.03216 5.5122 6.40037 5.6512C6.9722 5.86549 7.21299 6.39682 7.02939 6.99625L6.50592 8.55901H8.21868C8.79514 8.55901 9.20648 8.95915 9.20648 9.54858Z" fill="#ED1C28"/>
<path d="M8.27746 0.5C7.79367 0.5 7.29286 0.624318 6.8091 0.871711L5.41724 4.75753C5.5258 4.75003 5.63482 4.74597 5.74302 4.74597C6.08176 4.74597 6.44842 4.77252 6.73854 4.88154C7.24948 5.07302 7.45874 5.43505 7.50068 5.55219L8.15688 3.28629L11.3562 13.4781L14.2895 13.5L10.2292 2.05745C9.84972 0.977918 9.17577 0.5 8.27746 0.5Z" fill="#ED1C28"/>
</svg>
