<svg width="21" height="20" viewBox="0 0 21 20" fill="none" xmlns="http://www.w3.org/2000/svg">
<path fill-rule="evenodd" clip-rule="evenodd" d="M9.96967 4.71967C10.2626 4.42678 10.7374 4.42678 11.0303 4.71967C11.3232 5.01256 11.3232 5.48744 11.0303 5.78033L5.56066 11.25H20.25C20.6642 11.25 21 11.5858 21 12C21 12.4142 20.6642 12.75 20.25 12.75H5.56066L11.0303 18.2197C11.3232 18.5126 11.3232 18.9874 11.0303 19.2803C10.7374 19.5732 10.2626 19.5732 9.96967 19.2803L3.21967 12.5303C3.07322 12.3839 3 12.1919 3 12C3 11.8983 3.02024 11.8013 3.05691 11.7129C3.09351 11.6245 3.14776 11.5416 3.21967 11.4697L9.96967 4.71967Z" fill="#1A63F5"/>
</svg>
