<svg width="32" height="32" viewBox="0 0 32 32" fill="none" xmlns="http://www.w3.org/2000/svg">
<path fill-rule="evenodd" clip-rule="evenodd" d="M15.9697 10.7197C16.2626 10.4268 16.7374 10.4268 17.0303 10.7197C17.3232 11.0126 17.3232 11.4874 17.0303 11.7803L11.5607 17.25H26.25C26.6642 17.25 27 17.5858 27 18C27 18.4142 26.6642 18.75 26.25 18.75H11.5607L17.0303 24.2197C17.3232 24.5126 17.3232 24.9874 17.0303 25.2803C16.7374 25.5732 16.2626 25.5732 15.9697 25.2803L9.21967 18.5303C9.07322 18.3839 9 18.1919 9 18C9 17.8983 9.02024 17.8013 9.05691 17.7129C9.09351 17.6245 9.14776 17.5416 9.21967 17.4697L15.9697 10.7197Z" fill="#1A63F5"/>
</svg>
