<svg width="24" height="24" viewBox="0 0 24 24" fill="none" xmlns="http://www.w3.org/2000/svg">
<path fill-rule="evenodd" clip-rule="evenodd" d="M4.38462 12C4.38462 7.79414 7.79414 4.38462 12 4.38462C16.2059 4.38462 19.6154 7.79414 19.6154 12C19.6154 16.2059 16.2059 19.6154 12 19.6154C7.79414 19.6154 4.38462 16.2059 4.38462 12ZM12 3C7.02944 3 3 7.02944 3 12C3 16.9706 7.02944 21 12 21C16.9706 21 21 16.9706 21 12C21 7.02944 16.9706 3 12 3ZM12.6922 7.1539C12.6922 6.77155 12.3823 6.46159 11.9999 6.46159C11.6176 6.46159 11.3076 6.77155 11.3076 7.1539V12C11.3076 12.3824 11.6176 12.6924 11.9999 12.6924H16.8461C17.2284 12.6924 17.5384 12.3824 17.5384 12C17.5384 11.6177 17.2284 11.3077 16.8461 11.3077H12.6922V7.1539Z" fill="#616161"/>
</svg>
