<svg width="16" height="16" viewBox="0 0 16 16" fill="none" xmlns="http://www.w3.org/2000/svg">
<path fill-rule="evenodd" clip-rule="evenodd" d="M8 2C8.27614 2 8.5 2.22386 8.5 2.5V8.29289L10.2714 6.52145C10.4667 6.32618 10.7833 6.32618 10.9786 6.52145C11.1738 6.71671 11.1738 7.03329 10.9786 7.22855L8.35355 9.85355C8.2571 9.95001 8.13103 9.99882 8.00462 9.99998L8 10L7.99538 9.99998C7.92927 9.99938 7.86622 9.98595 7.80861 9.96206C7.74966 9.93767 7.69444 9.90153 7.64651 9.85362L7.64645 9.85355L5.02145 7.22855C4.82618 7.03329 4.82618 6.71671 5.02145 6.52145C5.21671 6.32618 5.53329 6.32618 5.72855 6.52145L7.5 8.29289V2.5C7.5 2.22386 7.72386 2 8 2ZM3 9.5C3 9.22386 2.77614 9 2.5 9C2.22386 9 2 9.22386 2 9.5V13C2 13.2652 2.10536 13.5196 2.29289 13.7071C2.48043 13.8946 2.73478 14 3 14H13C13.2652 14 13.5196 13.8946 13.7071 13.7071C13.8946 13.5196 14 13.2652 14 13V9.5C14 9.22386 13.7761 9 13.5 9C13.2239 9 13 9.22386 13 9.5V13H3V9.5Z" fill="#EDEDED"/>
</svg>
