<svg width="20" height="20" viewBox="0 0 20 20" fill="none" xmlns="http://www.w3.org/2000/svg">
<path d="M9.99935 18.3327C5.39685 18.3327 1.66602 14.6018 1.66602 9.99935C1.66602 5.39685 5.39685 1.66602 9.99935 1.66602C14.6018 1.66602 18.3327 5.39685 18.3327 9.99935C18.3327 14.6018 14.6018 18.3327 9.99935 18.3327ZM9.99935 12.4993C9.53911 12.4993 9.16602 12.8724 9.16602 13.3327C9.16602 13.7929 9.53911 14.166 9.99935 14.166C10.4596 14.166 10.8327 13.7929 10.8327 13.3327C10.8327 12.8724 10.4596 12.4993 9.99935 12.4993ZM9.99935 5.83268C9.53911 5.83268 9.16602 6.20578 9.16602 6.66602V9.99935C9.16602 10.4596 9.53911 10.8327 9.99935 10.8327C10.4596 10.8327 10.8327 10.4596 10.8327 9.99935V6.66602C10.8327 6.20578 10.4596 5.83268 9.99935 5.83268Z" fill="#EB1730"/>
</svg>
