<svg width="29" height="28" viewBox="0 0 29 28" fill="none" xmlns="http://www.w3.org/2000/svg">
<rect x="0.48645" width="28" height="28" rx="14" fill="#EAF8F3"/>
<g clip-path="url(#clip0_5155_10672)">
<path fill-rule="evenodd" clip-rule="evenodd" d="M11.4183 7.86364C11.147 7.86364 10.8869 7.97139 10.6951 8.16319C10.5033 8.35498 10.3955 8.61512 10.3955 8.88636C10.3955 9.15761 10.5033 9.41774 10.6951 9.60954C10.8869 9.80134 11.147 9.90909 11.4183 9.90909H13.5687C13.4855 9.69133 13.3801 9.45187 13.2498 9.21494C12.821 8.43523 12.2323 7.86364 11.4183 7.86364ZM9.0319 8.88636C9.0319 9.24353 9.11197 9.59244 9.26217 9.90909H7.66827C7.29171 9.90909 6.98645 10.2144 6.98645 10.5909V14C6.98645 14.3766 7.29171 14.6818 7.66827 14.6818H8.35009V20.8182C8.35009 21.1947 8.65535 21.5 9.0319 21.5H14.4865H19.941C20.3176 21.5 20.6228 21.1947 20.6228 20.8182V14.6818H21.3046C21.6812 14.6818 21.9865 14.3766 21.9865 14V10.5909C21.9865 10.2144 21.6812 9.90909 21.3046 9.90909H19.7107C19.8609 9.59244 19.941 9.24353 19.941 8.88636C19.941 8.25346 19.6896 7.64648 19.242 7.19895C18.7945 6.75142 18.1875 6.5 17.5546 6.5C15.9823 6.5 15.0369 7.63295 14.5282 8.55778C14.5141 8.58356 14.5001 8.60933 14.4865 8.63506C14.4728 8.60933 14.4588 8.58356 14.4447 8.55778C13.936 7.63295 12.9906 6.5 11.4183 6.5C10.7854 6.5 10.1784 6.75142 9.73085 7.19895C9.28332 7.64648 9.0319 8.25346 9.0319 8.88636ZM15.4042 9.90909H17.5546C17.8259 9.90909 18.086 9.80134 18.2778 9.60954C18.4696 9.41774 18.5774 9.15761 18.5774 8.88636C18.5774 8.61512 18.4696 8.35498 18.2778 8.16319C18.086 7.97139 17.8259 7.86364 17.5546 7.86364C16.7406 7.86364 16.1519 8.43523 15.7231 9.21494C15.5928 9.45187 15.4874 9.69133 15.4042 9.90909ZM15.1683 11.2727V13.3182H19.941H20.6228V11.2727H17.5546H15.1683ZM11.4183 11.2727H13.8046V13.3182H9.0319H8.35009V11.2727H11.4183ZM15.1683 20.1364H19.2592V14.6818H15.1683V20.1364ZM13.8046 14.6818V20.1364H9.71372V14.6818H13.8046Z" fill="#179769"/>
</g>
<defs>
<clipPath id="clip0_5155_10672">
<rect width="20" height="20" fill="white" transform="translate(4.48645 4)"/>
</clipPath>
</defs>
</svg>
