<svg width="29" height="28" viewBox="0 0 29 28" fill="none" xmlns="http://www.w3.org/2000/svg">
<rect x="0.48645" width="28" height="28" rx="14" fill="#EAF8F3"/>
<path fill-rule="evenodd" clip-rule="evenodd" d="M11.0772 8.98359C11.9814 8.0794 13.2078 7.57143 14.4865 7.57143C15.7652 7.57143 16.9916 8.0794 17.8958 8.98359C18.7999 9.88779 19.3079 11.1141 19.3079 12.3929C19.3079 14.6107 18.0694 16.6302 16.7608 18.1351C16.113 18.88 15.4639 19.4806 14.9766 19.8948C14.7839 20.0586 14.6171 20.1928 14.4865 20.2946C14.3559 20.1928 14.1891 20.0586 13.9964 19.8948C13.5091 19.4806 12.8599 18.88 12.2122 18.1351C10.9035 16.6302 9.66506 14.6107 9.66506 12.3929C9.66506 11.1141 10.173 9.88779 11.0772 8.98359ZM14.4797 21.5H9.66508C9.36921 21.5 9.12936 21.2601 9.12936 20.9642C9.12936 20.6684 9.36921 20.4285 9.66508 20.4285H12.9779C12.5133 20.014 11.9589 19.4767 11.4037 18.8381C10.0337 17.2627 8.59363 14.9965 8.59363 12.3929C8.59363 10.83 9.21448 9.3311 10.3196 8.22598C11.4247 7.12085 12.9236 6.5 14.4865 6.5C16.0494 6.5 17.5482 7.12085 18.6534 8.22598C19.7585 9.3311 20.3793 10.83 20.3793 12.3929C20.3793 14.9965 18.9393 17.2627 17.5693 18.8381C17.014 19.4767 16.4597 20.014 15.995 20.4285H19.3079C19.6038 20.4285 19.8437 20.6684 19.8437 20.9642C19.8437 21.2601 19.6038 21.5 19.3079 21.5H14.4933C14.4887 21.5 14.4842 21.5 14.4797 21.5ZM14.4865 10.7858C13.5989 10.7858 12.8793 11.5054 12.8793 12.393C12.8793 13.2806 13.5989 14.0001 14.4865 14.0001C15.3741 14.0001 16.0936 13.2806 16.0936 12.393C16.0936 11.5054 15.3741 10.7858 14.4865 10.7858ZM11.8079 12.393C11.8079 10.9137 13.0071 9.71442 14.4865 9.71442C15.9658 9.71442 17.165 10.9137 17.165 12.393C17.165 13.8723 15.9658 15.0716 14.4865 15.0716C13.0071 15.0716 11.8079 13.8723 11.8079 12.393Z" fill="#179769"/>
</svg>
