<svg width="24" height="24" viewBox="0 0 24 24" fill="none" xmlns="http://www.w3.org/2000/svg">
<path fill-rule="evenodd" clip-rule="evenodd" d="M12.7142 5.5714C12.7142 4.86133 13.2898 4.2857 13.9999 4.2857C14.71 4.2857 15.2856 4.86133 15.2856 5.5714C15.2856 6.28147 14.71 6.8571 13.9999 6.8571C13.2898 6.8571 12.7142 6.28147 12.7142 5.5714ZM13.9999 3C12.5798 3 11.4285 4.15125 11.4285 5.5714C11.4285 6.99154 12.5798 8.1428 13.9999 8.1428C15.42 8.1428 16.5713 6.99154 16.5713 5.5714C16.5713 4.15125 15.42 3 13.9999 3ZM6.0987 12.4531L6.09722 12.4546C5.84616 12.7054 5.43927 12.7054 5.18829 12.4544C4.93724 12.2033 4.93724 11.7963 5.18829 11.5453L5.63009 11.9871C5.18829 11.5453 5.18883 11.5447 5.18898 11.5446L5.19009 11.5435L5.19355 11.54L5.20532 11.5284C5.21531 11.5186 5.22956 11.5047 5.24785 11.487C5.28444 11.4518 5.33729 11.4015 5.40483 11.3391C5.53981 11.2143 5.73402 11.0403 5.97481 10.8398C6.45418 10.4407 7.1285 9.92779 7.89497 9.4892C8.65481 9.05441 9.54626 8.66871 10.4532 8.56755C11.1539 8.4894 11.8738 8.58175 12.5318 8.9529C12.5817 8.97492 12.6275 9.00252 12.6686 9.03466C12.834 9.13929 12.995 9.26251 13.1503 9.40612C13.4925 9.72159 13.8013 10.0507 14.1037 10.3731L14.1037 10.3731C15.2107 11.553 16.233 12.6427 18.4998 12.6427C18.8549 12.6427 19.1427 12.9305 19.1427 13.2855C19.1427 13.6406 18.8549 13.9284 18.4998 13.9284C15.6225 13.9284 14.1603 12.3474 13.0257 11.1207L13.0257 11.1207C12.8505 10.9312 12.6832 10.7503 12.5196 10.5849L11.3824 13.2013L14.373 15.3334C14.5422 15.4541 14.6427 15.6491 14.6427 15.8569V20.3568C14.6427 20.7119 14.3549 20.9997 13.9998 20.9997C13.6448 20.9997 13.357 20.7119 13.357 20.3568V16.1881L10.8585 14.4068L8.16103 20.6132C8.01951 20.9388 7.64083 21.0881 7.31522 20.9466C6.98961 20.805 6.84037 20.4264 6.98189 20.1007L9.98225 13.1973C9.98999 13.1766 9.99886 13.1562 10.0089 13.1361L11.4217 9.88544C11.1625 9.82296 10.8868 9.81286 10.5958 9.84532C9.93578 9.91894 9.2201 10.2122 8.53353 10.6051C7.85358 10.9942 7.2422 11.4576 6.79748 11.8279C6.57622 12.0121 6.39879 12.1711 6.27763 12.2831C6.2171 12.3391 6.17076 12.3832 6.14018 12.4127L6.10635 12.4456L6.0987 12.4531Z" fill="#616161"/>
</svg>
