<svg width="40" height="40" viewBox="0 0 40 40" fill="none" xmlns="http://www.w3.org/2000/svg">
<path opacity="0.1" fill-rule="evenodd" clip-rule="evenodd" d="M20 7.5C16.6848 7.5 13.5054 8.81696 11.1612 11.1612C8.81696 13.5054 7.5 16.6848 7.5 20C7.5 23.3152 8.81696 26.4946 11.1612 28.8388C13.5054 31.183 16.6848 32.5 20 32.5C23.3152 32.5 26.4946 31.183 28.8388 28.8388C31.183 26.4946 32.5 23.3152 32.5 20C32.5 16.6848 31.183 13.5054 28.8388 11.1612C26.4946 8.81696 23.3152 7.5 20 7.5ZM2.5 20C2.5 10.335 10.335 2.5 20 2.5C29.665 2.5 37.5 10.335 37.5 20C37.5 29.665 29.665 37.5 20 37.5C10.335 37.5 2.5 29.665 2.5 20Z" fill="#1A63F5"/>
<path fill-rule="evenodd" clip-rule="evenodd" d="M20.0004 7.50002C16.7777 7.49278 13.6781 8.73751 11.3554 10.9717C10.8742 11.4166 10.2375 11.6548 9.58246 11.6349C8.92738 11.6151 8.30629 11.3388 7.85292 10.8655C7.39955 10.3923 7.15014 9.7599 7.1584 9.10457C7.16666 8.44924 7.43193 7.82337 7.89709 7.36169C11.1503 4.23578 15.4888 2.49308 20.0004 2.50002C20.6635 2.50002 21.2993 2.76341 21.7682 3.23225C22.237 3.70109 22.5004 4.33698 22.5004 5.00002C22.5004 5.66306 22.237 6.29895 21.7682 6.76779C21.2993 7.23663 20.6635 7.50002 20.0004 7.50002Z" fill="#1A63F5"/>
</svg>
