<svg width="29" height="28" viewBox="0 0 29 28" fill="none" xmlns="http://www.w3.org/2000/svg">
<rect x="0.48645" width="28" height="28" rx="14" fill="#EAF8F3"/>
<path fill-rule="evenodd" clip-rule="evenodd" d="M7.56616 7.33398C7.246 7.33398 6.98645 7.59353 6.98645 7.91369C6.98645 8.23386 7.246 8.4934 7.56616 8.4934H9.40982L9.89193 10.9021C9.8945 10.9186 9.89776 10.9349 9.90169 10.9509L10.8701 15.7894C10.9497 16.1896 11.1675 16.549 11.4853 16.8049C11.8016 17.0595 12.1971 17.1954 12.6031 17.1891H18.2278C18.6338 17.1954 19.0292 17.0595 19.3456 16.8049C19.6635 16.5489 19.8813 16.1893 19.9609 15.789L20.8892 10.9208C20.9216 10.7511 20.8766 10.5758 20.7664 10.4427C20.6563 10.3096 20.4926 10.2325 20.3198 10.2325H10.9403L10.4534 7.79992C10.3992 7.52899 10.1613 7.33398 9.885 7.33398H7.56616ZM12.0072 15.5631L11.1724 11.392H19.6191L18.8233 15.5649C18.7965 15.6976 18.724 15.8168 18.6186 15.9017C18.5126 15.987 18.38 16.0323 18.2439 16.0297L18.2328 16.0296H12.598L12.5869 16.0297C12.4509 16.0323 12.3183 15.987 12.2123 15.9017C12.1063 15.8164 12.0337 15.6965 12.0072 15.5631ZM11.0444 19.5079C11.0444 18.8676 11.5635 18.3485 12.2038 18.3485C12.8442 18.3485 13.3633 18.8676 13.3633 19.5079C13.3633 20.1482 12.8442 20.6673 12.2038 20.6673C11.5635 20.6673 11.0444 20.1482 11.0444 19.5079ZM17.4212 19.5079C17.4212 18.8676 17.9403 18.3485 18.5807 18.3485C19.221 18.3485 19.7401 18.8676 19.7401 19.5079C19.7401 20.1482 19.221 20.6673 18.5807 20.6673C17.9403 20.6673 17.4212 20.1482 17.4212 19.5079Z" fill="#179769"/>
</svg>
