<svg width="40" height="40" viewBox="0 0 32 32" fill="none" xmlns="http://www.w3.org/2000/svg">
<rect width="32" height="32" rx="4" fill="#EDEDED"/>
<path fill-rule="evenodd" clip-rule="evenodd" d="M16.833 10.1673C16.833 9.70708 16.4599 9.33398 15.9997 9.33398C15.5394 9.33398 15.1663 9.70708 15.1663 10.1673V15.1673H10.1663C9.7061 15.1673 9.33301 15.5404 9.33301 16.0007C9.33301 16.4609 9.7061 16.834 10.1663 16.834H15.1663V21.834C15.1663 22.2942 15.5394 22.6673 15.9997 22.6673C16.4599 22.6673 16.833 22.2942 16.833 21.834V16.834H21.833C22.2932 16.834 22.6663 16.4609 22.6663 16.0007C22.6663 15.5404 22.2932 15.1673 21.833 15.1673H16.833V10.1673Z" fill="#C2C2C2"/>
</svg>
