<svg width="40" height="56" viewBox="0 0 40 56" fill="none" xmlns="http://www.w3.org/2000/svg">
<g clip-path="url(#clip0_609_1891)">
<mask id="path-1-outside-1_609_1891" maskUnits="userSpaceOnUse" x="0.474609" y="-1" width="39" height="58" fill="black">
<rect fill="white" x="0.474609" y="-1" width="39" height="58"/>
<path fill-rule="evenodd" clip-rule="evenodd" d="M34.606 29.5106C36.9354 26.4256 38.3167 22.5846 38.3167 18.4211C38.3167 8.24739 30.0693 0 19.8957 0C9.722 0 1.47461 8.24739 1.47461 18.4211C1.47461 22.5846 2.85591 26.4255 5.18524 29.5106C6.0131 30.6624 7.13229 31.8881 8.37119 33.245L8.37121 33.245C12.6744 37.9579 18.422 44.2526 18.422 54.5263C18.422 55.3402 19.0818 56 19.8957 56C20.7096 56 21.3693 55.3402 21.3693 54.5263C21.3693 44.2526 27.1169 37.9579 31.4201 33.245C32.659 31.8882 33.7782 30.6624 34.606 29.5106Z"/>
</mask>
<path fill-rule="evenodd" clip-rule="evenodd" d="M34.606 29.5106C36.9354 26.4256 38.3167 22.5846 38.3167 18.4211C38.3167 8.24739 30.0693 0 19.8957 0C9.722 0 1.47461 8.24739 1.47461 18.4211C1.47461 22.5846 2.85591 26.4255 5.18524 29.5106C6.0131 30.6624 7.13229 31.8881 8.37119 33.245L8.37121 33.245C12.6744 37.9579 18.422 44.2526 18.422 54.5263C18.422 55.3402 19.0818 56 19.8957 56C20.7096 56 21.3693 55.3402 21.3693 54.5263C21.3693 44.2526 27.1169 37.9579 31.4201 33.245C32.659 31.8882 33.7782 30.6624 34.606 29.5106Z" fill="#EA352B"/>
<path d="M34.606 29.5106L33.808 28.908L33.8009 28.9174L33.794 28.927L34.606 29.5106ZM5.18524 29.5106L5.99727 28.9269L5.9904 28.9174L5.98331 28.908L5.18524 29.5106ZM8.37119 33.245L7.63265 33.9193L7.64165 33.9289L8.37119 33.245ZM8.37121 33.245L9.10975 32.5707L9.10075 32.5611L8.37121 33.245ZM31.4201 33.245L32.1586 33.9193L31.4201 33.245ZM35.4041 30.1132C37.86 26.8606 39.3167 22.8095 39.3167 18.4211H37.3167C37.3167 22.3597 36.0108 25.9905 33.808 28.908L35.4041 30.1132ZM39.3167 18.4211C39.3167 7.6951 30.6216 -1 19.8957 -1V1C29.517 1 37.3167 8.79967 37.3167 18.4211H39.3167ZM19.8957 -1C9.16971 -1 0.474609 7.6951 0.474609 18.4211H2.47461C2.47461 8.79967 10.2743 1 19.8957 1V-1ZM0.474609 18.4211C0.474609 22.8095 1.93134 26.8605 4.38718 30.1131L5.98331 28.908C3.78048 25.9905 2.47461 22.3597 2.47461 18.4211H0.474609ZM4.37322 30.0942C5.24235 31.3034 6.40598 32.5757 7.63272 33.9193L9.10966 32.5707C7.8586 31.2005 6.78385 30.0214 5.99727 28.9269L4.37322 30.0942ZM7.64165 33.9289L7.64167 33.9289L9.10075 32.5611L9.10073 32.561L7.64165 33.9289ZM7.63274 33.9193C11.9401 38.6367 17.422 44.6746 17.422 54.5263H19.422C19.422 43.8305 13.4088 37.2791 9.10969 32.5707L7.63274 33.9193ZM17.422 54.5263C17.422 55.8925 18.5295 57 19.8957 57V55C19.6341 55 19.422 54.7879 19.422 54.5263H17.422ZM19.8957 57C21.2618 57 22.3693 55.8925 22.3693 54.5263H20.3693C20.3693 54.7879 20.1573 55 19.8957 55V57ZM22.3693 54.5263C22.3693 44.6746 27.8512 38.6367 32.1586 33.9193L30.6816 32.5707C26.3825 37.2791 20.3693 43.8305 20.3693 54.5263H22.3693ZM32.1586 33.9193C33.3853 32.5758 34.5489 31.3035 35.4181 30.0942L33.794 28.927C33.0074 30.0214 31.9327 31.2006 30.6816 32.5707L32.1586 33.9193Z" fill="url(#paint0_linear_609_1891)" mask="url(#path-1-outside-1_609_1891)"/>
<rect x="17.1582" y="8.8418" width="5.47368" height="19.1579" rx="2.73684" fill="white"/>
<rect x="29.4746" y="15.6836" width="5.47368" height="19.1579" rx="2.73684" transform="rotate(90 29.4746 15.6836)" fill="white"/>
</g>
<defs>
<linearGradient id="paint0_linear_609_1891" x1="19.8957" y1="0" x2="19.8957" y2="56" gradientUnits="userSpaceOnUse">
<stop stop-color="white"/>
<stop offset="1" stop-color="white" stop-opacity="0.35"/>
</linearGradient>
<clipPath id="clip0_609_1891">
<rect width="39.7895" height="56" fill="white"/>
</clipPath>
</defs>
</svg>
