<svg width="27" height="38" viewBox="0 0 27 38" fill="none" xmlns="http://www.w3.org/2000/svg">
<g clip-path="url(#clip0_609_1983)">
<mask id="path-1-outside-1_609_1983" maskUnits="userSpaceOnUse" x="0" y="-1" width="27" height="40" fill="black">
<rect fill="white" y="-1" width="27" height="40"/>
<path fill-rule="evenodd" clip-rule="evenodd" d="M26 12.5C26 15.3253 25.0627 17.9316 23.4821 20.025C22.9203 20.8066 22.1609 21.6384 21.3202 22.5591C18.4001 25.7571 14.5 30.0285 14.5 37C14.5 37.5523 14.0523 38 13.5 38C12.9477 38 12.5 37.5523 12.5 37C12.5 30.0285 8.59989 25.7571 5.67984 22.5591C4.83915 21.6384 4.07969 20.8066 3.51793 20.025C1.93731 17.9316 1 15.3253 1 12.5C1 5.59644 6.59644 0 13.5 0C20.4036 0 26 5.59644 26 12.5Z"/>
</mask>
<path fill-rule="evenodd" clip-rule="evenodd" d="M26 12.5C26 15.3253 25.0627 17.9316 23.4821 20.025C22.9203 20.8066 22.1609 21.6384 21.3202 22.5591C18.4001 25.7571 14.5 30.0285 14.5 37C14.5 37.5523 14.0523 38 13.5 38C12.9477 38 12.5 37.5523 12.5 37C12.5 30.0285 8.59989 25.7571 5.67984 22.5591C4.83915 21.6384 4.07969 20.8066 3.51793 20.025C1.93731 17.9316 1 15.3253 1 12.5C1 5.59644 6.59644 0 13.5 0C20.4036 0 26 5.59644 26 12.5Z" fill="#EA352B"/>
<path d="M23.4821 20.025L22.684 19.4224L22.6769 19.4318L22.67 19.4414L23.4821 20.025ZM21.3202 22.5591L22.0586 23.2334L21.3202 22.5591ZM5.67984 22.5591L6.41831 21.8848L6.41831 21.8848L5.67984 22.5591ZM3.51793 20.025L4.32995 19.4414L4.32309 19.4318L4.316 19.4225L3.51793 20.025ZM24.2801 20.6276C25.9873 18.3666 27 15.5501 27 12.5H25C25 15.1004 24.1381 17.4966 22.684 19.4224L24.2801 20.6276ZM22.0586 23.2334C22.8872 22.326 23.6911 21.4477 24.2941 20.6086L22.67 19.4414C22.1496 20.1656 21.4345 20.9508 20.5817 21.8848L22.0586 23.2334ZM15.5 37C15.5 30.4506 19.1345 26.4359 22.0586 23.2334L20.5817 21.8848C17.6658 25.0783 13.5 29.6065 13.5 37H15.5ZM13.5 39C14.6046 39 15.5 38.1046 15.5 37H13.5V39ZM11.5 37C11.5 38.1046 12.3954 39 13.5 39V37H11.5ZM4.94136 23.2334C7.86553 26.4359 11.5 30.4506 11.5 37H13.5C13.5 29.6065 9.33425 25.0783 6.41831 21.8848L4.94136 23.2334ZM2.70591 20.6087C3.30894 21.4477 4.11284 22.326 4.94136 23.2334L6.41831 21.8848C5.56546 20.9508 4.85045 20.1656 4.32995 19.4414L2.70591 20.6087ZM0 12.5C0 15.5501 1.01274 18.3666 2.71987 20.6276L4.316 19.4225C2.86188 17.4966 2 15.1004 2 12.5H0ZM13.5 -1C6.04416 -1 0 5.04416 0 12.5H2C2 6.14873 7.14873 1 13.5 1V-1ZM27 12.5C27 5.04416 20.9558 -1 13.5 -1V1C19.8513 1 25 6.14873 25 12.5H27Z" fill="url(#paint0_linear_609_1983)" mask="url(#path-1-outside-1_609_1983)"/>
<rect x="11.6426" y="6" width="3.71429" height="13" rx="1.85714" fill="white"/>
<rect x="20" y="10.6426" width="3.71429" height="13" rx="1.85714" transform="rotate(90 20 10.6426)" fill="white"/>
</g>
<defs>
<linearGradient id="paint0_linear_609_1983" x1="13.5" y1="0" x2="13.5" y2="38" gradientUnits="userSpaceOnUse">
<stop stop-color="white"/>
<stop offset="1" stop-color="white" stop-opacity="0.35"/>
</linearGradient>
<clipPath id="clip0_609_1983">
<rect width="27" height="38" fill="white"/>
</clipPath>
</defs>
</svg>
