<svg width="143" height="124" viewBox="0 0 143 124" fill="none" xmlns="http://www.w3.org/2000/svg">
<path d="M70.1775 106C98.1232 106 120.779 83.2353 120.779 55.0555C120.779 26.8758 98.0234 4.11133 70.1775 4.11133C42.2317 4.11133 19.5757 26.8758 19.5757 55.0555C19.5757 83.2353 42.2317 106 70.1775 106Z" fill="#EAEEF9"/>
<path d="M123.474 5.61589C125.017 5.61589 126.269 4.35873 126.269 2.80795C126.269 1.25716 125.017 0 123.474 0C121.931 0 120.679 1.25716 120.679 2.80795C120.679 4.35873 121.931 5.61589 123.474 5.61589Z" fill="#E7EBF6"/>
<path d="M22.2704 21.5612C23.8138 21.5612 25.065 20.304 25.065 18.7533C25.065 17.2025 23.8138 15.9453 22.2704 15.9453C20.727 15.9453 19.4758 17.2025 19.4758 18.7533C19.4758 20.304 20.727 21.5612 22.2704 21.5612Z" fill="#E7EBF6"/>
<path d="M5.2036 75.7147C8.06991 75.7147 10.3935 73.38 10.3935 70.4999C10.3935 67.6199 8.06991 65.2852 5.2036 65.2852C2.33728 65.2852 0.0136719 67.6199 0.0136719 70.4999C0.0136719 73.38 2.33728 75.7147 5.2036 75.7147Z" fill="#E7EBF6"/>
<g filter="url(#filter0_d_4936_12465)">
<path d="M118.395 28.2969V87.3016C118.395 89.0327 116.959 90.4754 115.236 90.4754H26.002C24.279 90.5475 22.8433 89.1049 22.8433 87.3737V28.2969C22.8433 26.4936 24.279 25.123 26.002 25.123H115.236C117.031 25.123 118.395 26.5657 118.395 28.2969Z" fill="url(#paint0_linear_4936_12465)"/>
</g>
<path d="M118.395 28.2969V32.8413H22.8433V28.2969C22.8433 26.4936 24.279 25.123 26.002 25.123H115.236C117.031 25.123 118.395 26.5657 118.395 28.2969Z" fill="url(#paint1_linear_4936_12465)"/>
<path d="M57.4458 55.707C58.9127 55.707 60.102 54.5121 60.102 53.0381C60.102 51.5641 58.9127 50.3691 57.4458 50.3691C55.9788 50.3691 54.7896 51.5641 54.7896 53.0381C54.7896 54.5121 55.9788 55.707 57.4458 55.707Z" fill="#989FB0"/>
<path d="M83.8642 55.707C85.3312 55.707 86.5204 54.5121 86.5204 53.0381C86.5204 51.5641 85.3312 50.3691 83.8642 50.3691C82.3972 50.3691 81.208 51.5641 81.208 53.0381C81.208 54.5121 82.3972 55.707 83.8642 55.707Z" fill="#989FB0"/>
<path d="M74.9622 73.2354H66.6347C65.3425 73.2354 64.2656 72.1534 64.2656 70.855C64.2656 69.5566 65.3425 68.4746 66.6347 68.4746H74.8904C76.1827 68.4746 77.2595 69.5566 77.2595 70.855C77.3313 72.1534 76.2544 73.2354 74.9622 73.2354Z" fill="#989FB0"/>
<path d="M27.0788 30.3163C27.6735 30.3163 28.1556 29.8319 28.1556 29.2343C28.1556 28.6368 27.6735 28.1523 27.0788 28.1523C26.4841 28.1523 26.002 28.6368 26.002 29.2343C26.002 29.8319 26.4841 30.3163 27.0788 30.3163Z" fill="#F9FAFB"/>
<path d="M30.4528 30.3163C31.0475 30.3163 31.5297 29.8319 31.5297 29.2343C31.5297 28.6368 31.0475 28.1523 30.4528 28.1523C29.8581 28.1523 29.376 28.6368 29.376 29.2343C29.376 29.8319 29.8581 30.3163 30.4528 30.3163Z" fill="#F9FAFB"/>
<path d="M33.8989 30.3163C34.4936 30.3163 34.9757 29.8319 34.9757 29.2343C34.9757 28.6368 34.4936 28.1523 33.8989 28.1523C33.3041 28.1523 32.822 28.6368 32.822 29.2343C32.822 29.8319 33.3041 30.3163 33.8989 30.3163Z" fill="#F9FAFB"/>
<path d="M114.518 17.4763C113.8 17.4763 113.226 16.8993 113.226 16.1779V1.67925C113.226 0.957922 113.8 0.380859 114.518 0.380859C115.236 0.380859 115.81 0.957922 115.81 1.67925V16.1779C115.81 16.8993 115.236 17.4763 114.518 17.4763Z" fill="#989FB0"/>
<path d="M125 28.5855C125 27.8642 125.574 27.2871 126.292 27.2871H140.721C141.439 27.2871 142.014 27.8642 142.014 28.5855C142.014 29.3068 141.439 29.8839 140.721 29.8839H126.292C125.574 29.8839 125 29.3068 125 28.5855Z" fill="#989FB0"/>
<path d="M123.851 19.208C123.348 18.703 123.348 17.8374 123.851 17.3325L134.117 7.08963C134.619 6.58471 135.481 6.58471 135.983 7.08963C136.486 7.59456 136.486 8.46016 135.983 8.96509L125.789 19.208C125.215 19.7129 124.353 19.7129 123.851 19.208Z" fill="#989FB0"/>
<defs>
<filter id="filter0_d_4936_12465" x="0.843262" y="14.123" width="139.552" height="109.355" filterUnits="userSpaceOnUse" color-interpolation-filters="sRGB">
<feFlood flood-opacity="0" result="BackgroundImageFix"/>
<feColorMatrix in="SourceAlpha" type="matrix" values="0 0 0 0 0 0 0 0 0 0 0 0 0 0 0 0 0 0 127 0" result="hardAlpha"/>
<feOffset dy="11"/>
<feGaussianBlur stdDeviation="11"/>
<feColorMatrix type="matrix" values="0 0 0 0 0.397708 0 0 0 0 0.47749 0 0 0 0 0.575 0 0 0 0.27 0"/>
<feBlend mode="normal" in2="BackgroundImageFix" result="effect1_dropShadow_4936_12465"/>
<feBlend mode="normal" in="SourceGraphic" in2="effect1_dropShadow_4936_12465" result="shape"/>
</filter>
<linearGradient id="paint0_linear_4936_12465" x1="70.5879" y1="23.6113" x2="70.5879" y2="91.1826" gradientUnits="userSpaceOnUse">
<stop stop-color="#FDFEFF"/>
<stop offset="0.9964" stop-color="#ECF0F5"/>
</linearGradient>
<linearGradient id="paint1_linear_4936_12465" x1="114.605" y1="25.1231" x2="25.9206" y2="28.9456" gradientUnits="userSpaceOnUse">
<stop stop-color="#B0BACC"/>
<stop offset="1" stop-color="#969EAE"/>
</linearGradient>
</defs>
</svg>
