<svg width="17" height="16" viewBox="0 0 17 16" fill="none" xmlns="http://www.w3.org/2000/svg">
<g clip-path="url(#clip0_5185_2699)">
<path fill-rule="evenodd" clip-rule="evenodd" d="M2.34338 3.59903C2.34338 2.62962 3.12925 1.84375 4.09866 1.84375H6.08716C6.58167 1.84375 7.02071 2.16019 7.17709 2.62933L8.08535 5.3541C8.26615 5.89651 8.0206 6.48932 7.50921 6.74501L6.6265 7.18637C7.18154 8.18116 8.00597 9.00559 9.00077 9.56064L9.44213 8.67792C9.69782 8.16654 10.2906 7.92098 10.833 8.10179L13.5578 9.01004C14.0269 9.16642 14.3434 9.60546 14.3434 10.1V12.0885C14.3434 13.0579 13.5575 13.8438 12.5881 13.8438H11.9817C6.65861 13.8438 2.34338 9.52852 2.34338 4.20542V3.59903ZM4.09866 2.92875C3.72848 2.92875 3.42839 3.22885 3.42839 3.59903V4.20542C3.42839 8.92929 7.25784 12.7587 11.9817 12.7587H12.5881C12.9583 12.7587 13.2584 12.4587 13.2584 12.0885V10.1C13.2584 10.0725 13.2408 10.0481 13.2147 10.0394L10.4899 9.13111C10.4598 9.12106 10.4268 9.13471 10.4126 9.16315L9.72819 10.5319C9.59798 10.7923 9.28541 10.9035 9.01998 10.7839C7.41692 10.0611 6.12603 8.77022 5.40326 7.16715C5.28359 6.90172 5.39479 6.58915 5.65521 6.45894L7.02399 5.77455C7.05242 5.76034 7.06608 5.72737 7.05602 5.69721L6.14777 2.97244C6.13907 2.94635 6.11466 2.92875 6.08716 2.92875H4.09866Z" fill="#1A63F5"/>
</g>
<defs>
<clipPath id="clip0_5185_2699">
<rect width="16" height="16" fill="white" transform="translate(0.5)"/>
</clipPath>
</defs>
</svg>
