<svg width="13" height="13" viewBox="0 0 13 13" fill="none" xmlns="http://www.w3.org/2000/svg">
<path fill-rule="evenodd" clip-rule="evenodd" d="M0.343384 2.59903C0.343384 1.62962 1.12925 0.84375 2.09866 0.84375H4.08716C4.58167 0.84375 5.02071 1.16019 5.17709 1.62933L6.08535 4.3541C6.26615 4.89651 6.0206 5.48932 5.50921 5.74501L4.6265 6.18637C5.18154 7.18116 6.00597 8.00559 7.00077 8.56064L7.44213 7.67792C7.69782 7.16654 8.29063 6.92098 8.83303 7.10179L11.5578 8.01004C12.0269 8.16642 12.3434 8.60546 12.3434 9.09998V11.0885C12.3434 12.0579 11.5575 12.8438 10.5881 12.8438H9.98172C4.65861 12.8438 0.343384 8.52852 0.343384 3.20542V2.59903ZM2.09866 1.92875C1.72848 1.92875 1.42839 2.22885 1.42839 2.59903V3.20542C1.42839 7.92929 5.25784 11.7587 9.98172 11.7587H10.5881C10.9583 11.7587 11.2584 11.4587 11.2584 11.0885V9.09998C11.2584 9.07248 11.2408 9.04806 11.2147 9.03937L8.48993 8.13111C8.45976 8.12106 8.4268 8.13471 8.41258 8.16315L7.72819 9.53193C7.59798 9.79235 7.28541 9.90354 7.01998 9.78387C5.41692 9.0611 4.12603 7.77022 3.40326 6.16715C3.28359 5.90172 3.39479 5.58915 3.65521 5.45894L5.02399 4.77455C5.05242 4.76034 5.06608 4.72737 5.05602 4.69721L4.14777 1.97244C4.13907 1.94635 4.11466 1.92875 4.08716 1.92875H2.09866Z" fill="#1A63F5"/>
</svg>
