<?xml version="1.0" standalone="no"?>
<!DOCTYPE svg PUBLIC "-//W3C//DTD SVG 1.1//EN" "http://www.w3.org/Graphics/SVG/1.1/DTD/svg11.dtd" >
<svg xmlns="http://www.w3.org/2000/svg">
<metadata>Generated by IcoMoon</metadata>
<defs>
<font id="med-icons" horiz-adv-x="2048">
<font-face units-per-em="2048" ascent="1920" descent="-128" />
<missing-glyph horiz-adv-x="2048" />
<glyph unicode="&#x20;" horiz-adv-x="1024" d="" />
<glyph unicode="&#xe900;" horiz-adv-x="1382" d="M1331.2 1228.8c0-144.656-47.99-278.098-128.916-385.28-28.764-40.018-67.646-82.606-110.69-129.746-149.51-163.738-349.194-382.434-349.194-739.374 0-28.278-22.922-51.2-51.2-51.2s-51.2 22.922-51.2 51.2c0 356.94-199.686 575.636-349.192 739.374-43.044 47.14-81.928 89.728-110.69 129.746-80.928 107.182-128.918 240.624-128.918 385.28 0 353.462 286.538 640 640 640 353.464 0 640-286.538 640-640z" />
<glyph unicode="&#xe901;" horiz-adv-x="1382" d="M1202.284 843.52l-40.862 30.854-0.364-0.482-0.354-0.492 41.58-29.88zM1091.594 713.774v0zM290.808 713.774v0zM180.118 843.52l41.576 29.88-0.352 0.492-0.364 0.476-40.862-30.848zM1243.142 812.666c87.408 115.764 139.258 259.968 139.258 416.134h-102.4c0-133.14-44.13-255.826-118.58-354.426l81.72-61.706zM1129.4 679.25c42.424 46.458 83.584 91.428 114.458 134.39l-83.154 59.76c-26.644-37.080-63.258-77.282-106.92-125.102l75.618-69.048zM793.6-25.6c0 335.33 186.086 540.882 335.8 704.85l-75.618 69.048c-149.294-163.508-362.584-395.352-362.584-773.898h102.4zM691.2-128c56.556 0 102.4 45.844 102.4 102.4h-102.4v-102.4zM588.8-25.6c0-56.556 45.844-102.4 102.4-102.4v102.4h-102.4zM252.998 679.25c149.718-163.968 335.802-369.52 335.802-704.85h102.4c0 378.548-213.286 610.392-362.582 773.898l-75.62-69.048zM138.542 813.634c30.876-42.956 72.034-87.926 114.456-134.384l75.62 69.048c-43.666 47.82-80.274 88.024-106.924 125.102l-83.15-59.766zM0 1228.8c0-156.166 51.852-300.37 139.258-416.134l81.722 61.702c-74.45 98.606-118.58 221.292-118.58 354.432h-102.4zM691.2 1920c-381.74 0-691.2-309.46-691.2-691.2h102.4c0 325.186 263.614 588.8 588.8 588.8v102.4zM1382.4 1228.8c0 381.74-309.464 691.2-691.2 691.2v-102.4c325.186 0 588.8-263.614 588.8-588.8h102.4z" />
<glyph unicode="&#xe902;" horiz-adv-x="1382" d="M1228.8 1228.8c0-296.908-240.692-537.6-537.6-537.6s-537.6 240.692-537.6 537.6c0 296.908 240.692 537.6 537.6 537.6s537.6-240.692 537.6-537.6z" />
<glyph unicode="&#xe903;" horiz-adv-x="1382" d="M256 1408h921.6v-307.2h-921.6v307.2z" />
<glyph unicode="&#xe904;" horiz-adv-x="1382" d="M1331.2 1228.8c0-144.656-47.99-278.098-128.916-385.28-28.764-40.018-67.646-82.606-110.69-129.746-149.51-163.738-349.194-382.434-349.194-739.374 0-28.278-22.922-51.2-51.2-51.2s-51.2 22.922-51.2 51.2c0 356.94-199.686 575.636-349.192 739.374-43.044 47.14-81.928 89.728-110.69 129.746-80.928 107.182-128.918 240.624-128.918 385.28 0 353.462 286.538 640 640 640 353.464 0 640-286.538 640-640z" />
<glyph unicode="&#xe905;" horiz-adv-x="1382" d="M1202.284 843.52l-40.862 30.854-0.364-0.482-0.354-0.492 41.58-29.88zM1091.594 713.774v0zM290.808 713.774v0zM180.118 843.52l41.576 29.88-0.352 0.492-0.364 0.476-40.862-30.848zM1243.142 812.666c87.408 115.764 139.258 259.968 139.258 416.134h-102.4c0-133.14-44.13-255.826-118.58-354.426l81.72-61.706zM1129.4 679.25c42.424 46.458 83.584 91.428 114.458 134.39l-83.154 59.76c-26.644-37.080-63.258-77.282-106.92-125.102l75.618-69.048zM793.6-25.6c0 335.33 186.086 540.882 335.8 704.85l-75.618 69.048c-149.294-163.508-362.584-395.352-362.584-773.898h102.4zM691.2-128c56.556 0 102.4 45.844 102.4 102.4h-102.4v-102.4zM588.8-25.6c0-56.556 45.844-102.4 102.4-102.4v102.4h-102.4zM252.998 679.25c149.718-163.968 335.802-369.52 335.802-704.85h102.4c0 378.548-213.286 610.392-362.582 773.898l-75.62-69.048zM138.542 813.634c30.876-42.956 72.034-87.926 114.456-134.384l75.62 69.048c-43.666 47.82-80.274 88.024-106.924 125.102l-83.15-59.766zM0 1228.8c0-156.166 51.852-300.37 139.258-416.134l81.722 61.702c-74.45 98.606-118.58 221.292-118.58 354.432h-102.4zM691.2 1920c-381.74 0-691.2-309.46-691.2-691.2h102.4c0 325.186 263.614 588.8 588.8 588.8v102.4zM1382.4 1228.8c0 381.74-309.464 691.2-691.2 691.2v-102.4c325.186 0 588.8-263.614 588.8-588.8h102.4z" />
<glyph unicode="&#xe906;" horiz-adv-x="1382" d="M1228.8 1228.8c0-296.908-240.692-537.6-537.6-537.6s-537.6 240.692-537.6 537.6c0 296.908 240.692 537.6 537.6 537.6s537.6-240.692 537.6-537.6z" />
<glyph unicode="&#xe907;" horiz-adv-x="1382" d="M204.8 1356.8h972.8v-204.8h-972.8v204.8z" />
<glyph unicode="&#xe908;" glyph-name="back-arrow" d="M1022.060 1233.94c18.746 18.746 49.132 18.746 67.878 0s18.746-49.132 0-67.878l-350.054-350.060h940.116c26.508 0 48-21.492 48-48s-21.492-48-48-48h-940.116l350.054-350.060c18.746-18.746 18.746-49.132 0-67.878s-49.132-18.746-67.878 0l-432.002 432c-9.372 9.37-14.058 21.658-14.058 33.94 0 6.508 1.296 12.716 3.642 18.374 2.342 5.658 5.814 10.964 10.416 15.564l432.002 432z" />
<glyph unicode="&#xe909;" glyph-name="back" horiz-adv-x="2150" d="M1020.894 1436.706c29.996 29.992 78.616 29.992 108.608 0s29.992-78.62 0-108.612l-560.092-560.094h1504.188c42.414 0 76.8-34.386 76.8-76.8s-34.386-76.8-76.8-76.8h-1504.188l560.092-560.098c29.992-29.992 29.992-78.612 0-108.606s-78.612-29.992-108.608 0l-691.2 691.2c-14.996 14.992-22.494 34.652-22.494 54.302 0 10.414 2.072 20.346 5.828 29.4 3.748 9.052 9.304 17.542 16.666 24.904l691.2 691.204z" />
<glyph unicode="&#xe90a;" glyph-name="clock" d="M374.154 896c0 358.9 290.946 649.846 649.846 649.846 358.904 0 649.848-290.946 649.848-649.846 0-358.904-290.944-649.848-649.848-649.848-358.9 0-649.846 290.944-649.846 649.848zM1024 1664c-424.154 0-768-343.846-768-768 0-424.158 343.846-768 768-768 424.158 0 768 343.842 768 768 0 424.154-343.842 768-768 768zM1083.068 1309.534c0 32.628-26.444 59.078-59.076 59.078-32.622 0-59.076-26.45-59.076-59.078v-413.534c0-32.632 26.454-59.084 59.076-59.084h413.542c32.622 0 59.076 26.454 59.076 59.084 0 32.622-26.454 59.076-59.076 59.076h-354.466v354.458z" />
<glyph unicode="&#xe90b;" glyph-name="close" d="M1596.272 1347.728c33.32 33.324 33.32 87.354 0 120.68s-87.358 33.324-120.678 0l-451.66-451.66-451.66 451.66c-33.324 33.324-87.354 33.324-120.68 0s-33.324-87.356 0-120.68l451.66-451.66-451.66-451.66c-33.324-33.32-33.324-87.358 0-120.678s87.356-33.32 120.68 0l451.66 451.656 451.66-451.656c33.32-33.32 87.358-33.32 120.678 0s33.32 87.358 0 120.678l-451.656 451.66 451.656 451.66z" />
<glyph unicode="&#xe90c;" horiz-adv-x="2764" d="M0 1920h2730.67v-2048h-2730.67z" />
<glyph unicode="&#xe90d;" horiz-adv-x="2764" d="M2730.67 1605.134h-2730.67v157.868h2730.67v-157.868zM2730.67 1290.68h-2730.67v157.866h2730.67v-157.866zM2730.67 974.946h-2730.67v157.868h2730.67v-157.868zM2730.67 659.21h-2730.67v157.87h2730.67v-157.87zM2730.67 343.48h-2730.67v157.87h2730.67v-157.87zM2730.67 27.75h-2730.67v157.86h2730.67v-157.86z" />
<glyph unicode="&#xe90e;" horiz-adv-x="2764" d="M0 1920h1556.48v-1102.93h-1556.48z" />
<glyph unicode="&#xe90f;" glyph-name="human" d="M1084.946 1444.574c0 60.592 49.118 109.714 109.714 109.714s109.714-49.12 109.714-109.714c0-60.592-49.118-109.714-109.714-109.714s-109.714 49.12-109.714 109.714zM1194.658 1664c-121.182 0-219.426-98.24-219.426-219.426s98.244-219.426 219.426-219.426c121.182 0 219.426 98.24 219.426 219.426s-98.244 219.426-219.426 219.426zM520.422 857.336l-0.126-0.128c-21.424-21.402-56.146-21.402-77.562 0.018-21.422 21.428-21.422 56.158 0 77.576l37.7-37.7c-37.7 37.7-37.654 37.752-37.642 37.76l0.094 0.094 0.296 0.298 1.004 0.99c0.852 0.836 2.068 2.022 3.63 3.532 3.122 3.004 7.632 7.296 13.396 12.62 11.518 10.65 28.090 25.498 48.638 42.606 40.906 34.056 98.448 77.824 163.854 115.252 64.84 37.102 140.91 70.016 218.302 78.648 59.794 6.668 121.224-1.212 177.374-32.884 4.258-1.88 8.166-4.234 11.674-6.976 14.114-8.928 27.852-19.444 41.106-31.698 29.202-26.92 55.552-55.004 81.356-82.516v0c94.464-100.684 181.7-193.672 375.134-193.672 30.302 0 54.86-24.558 54.86-54.852 0-30.302-24.558-54.86-54.86-54.86-245.53 0-370.304 134.912-467.124 239.59v0c-14.95 16.17-29.226 31.608-43.188 45.722l-97.042-223.266 255.198-181.94c14.438-10.3 23.014-26.94 23.014-44.672v-383.992c0-30.302-24.558-54.86-54.86-54.86-30.294 0-54.852 24.558-54.852 54.86v355.73l-213.206 152.004-230.184-529.612c-12.076-27.784-44.39-40.524-72.176-28.45-27.786 12.084-40.52 44.39-28.444 72.184l256.030 589.090c0.66 1.766 1.418 3.508 2.274 5.222l120.558 277.39c-22.118 5.332-45.644 6.194-70.476 3.424-56.322-6.282-117.394-31.308-175.98-64.834-58.022-33.204-110.194-72.746-148.142-104.346-18.88-15.718-34.022-29.286-44.36-38.844-5.166-4.778-9.12-8.542-11.73-11.060l-2.886-2.808-0.652-0.64z" />
<glyph unicode="&#xe910;" horiz-adv-x="2764" d="M34.138 1920h2730.662v-682.668h-2730.662v682.668z" />
<glyph unicode="&#xe911;" horiz-adv-x="2764" d="M34.138 1237.4h2730.662v-682.668h-2730.662v682.668z" />
<glyph unicode="&#xe912;" horiz-adv-x="2764" d="M34.138 554.598h2730.662v-682.67h-2730.662v682.67z" />
<glyph unicode="&#xe913;" glyph-name="language-closed" d="M451.66 1212.34c33.326 33.324 87.354 33.324 120.68 0l451.66-451.662 451.66 451.662c33.322 33.324 87.356 33.324 120.678 0s33.322-87.354 0-120.68l-512-512c-33.322-33.322-87.356-33.322-120.678 0l-512 512c-33.324 33.326-33.324 87.354 0 120.68z" />
<glyph unicode="&#xe914;" glyph-name="language-opened" d="M963.66 1212.34c33.322 33.324 87.356 33.324 120.678 0l512-512c33.322-33.322 33.322-87.356 0-120.678s-87.356-33.322-120.678 0l-451.66 451.66-451.66-451.66c-33.326-33.322-87.354-33.322-120.68 0s-33.324 87.356 0 120.678l512 512z" />
<glyph unicode="&#xe915;" horiz-adv-x="1382" d="M1331.2 1228.8c0-144.656-47.99-278.098-128.916-385.28-28.764-40.018-67.646-82.606-110.69-129.746-149.51-163.738-349.194-382.434-349.194-739.374 0-28.278-22.922-51.2-51.2-51.2s-51.2 22.922-51.2 51.2c0 356.94-199.686 575.636-349.192 739.374-43.044 47.14-81.928 89.728-110.69 129.746-80.928 107.182-128.918 240.624-128.918 385.28 0 353.462 286.538 640 640 640 353.464 0 640-286.538 640-640z" />
<glyph unicode="&#xe916;" horiz-adv-x="1382" d="M1202.284 843.52l-40.862 30.854-0.364-0.482-0.354-0.492 41.58-29.88zM1091.594 713.774v0zM290.808 713.774v0zM180.118 843.52l41.576 29.88-0.352 0.492-0.364 0.476-40.862-30.848zM1243.142 812.666c87.408 115.764 139.258 259.968 139.258 416.134h-102.4c0-133.14-44.13-255.826-118.58-354.426l81.72-61.706zM1129.4 679.25c42.424 46.458 83.584 91.428 114.458 134.39l-83.154 59.76c-26.644-37.080-63.258-77.282-106.92-125.102l75.618-69.048zM793.6-25.6c0 335.33 186.086 540.882 335.8 704.85l-75.618 69.048c-149.294-163.508-362.584-395.352-362.584-773.898h102.4zM691.2-128c56.556 0 102.4 45.844 102.4 102.4h-102.4v-102.4zM588.8-25.6c0-56.556 45.844-102.4 102.4-102.4v102.4h-102.4zM252.998 679.25c149.718-163.968 335.802-369.52 335.802-704.85h102.4c0 378.548-213.286 610.392-362.582 773.898l-75.62-69.048zM138.542 813.634c30.876-42.956 72.034-87.926 114.456-134.384l75.62 69.048c-43.666 47.82-80.274 88.024-106.924 125.102l-83.15-59.766zM0 1228.8c0-156.166 51.852-300.37 139.258-416.134l81.722 61.702c-74.45 98.606-118.58 221.292-118.58 354.432h-102.4zM691.2 1920c-381.74 0-691.2-309.46-691.2-691.2h102.4c0 325.186 263.614 588.8 588.8 588.8v102.4zM1382.4 1228.8c0 381.74-309.464 691.2-691.2 691.2v-102.4c325.186 0 588.8-263.614 588.8-588.8h102.4z" />
<glyph unicode="&#xe917;" horiz-adv-x="1382" d="M1228.8 1228.8c0-296.908-240.692-537.6-537.6-537.6s-537.6 240.692-537.6 537.6c0 296.908 240.692 537.6 537.6 537.6s537.6-240.692 537.6-537.6z" />
<glyph unicode="&#xe918;" horiz-adv-x="1382" d="M204.8 1561.6h972.8v-614.4h-972.8v614.4z" />
<glyph unicode="&#xe919;" d="M256 1920h1536c141.384 0 256-114.616 256-256v-1536c0-141.384-114.616-256-256-256h-1536c-141.384 0-256 114.616-256 256v1536c0 141.384 114.616 256 256 256z" />
<glyph unicode="&#xe91a;" d="M597.312 896.044c0 29.452 23.878 53.332 53.33 53.332h746.668c29.452 0 53.332-23.878 53.332-53.332 0-29.46-23.878-53.338-53.332-53.338h-746.668c-29.452 0-53.33 23.878-53.33 53.338z" />
<glyph unicode="&#xe91b;" d="M256 1920h1536c141.384 0 256-114.616 256-256v-1536c0-141.384-114.616-256-256-256h-1536c-141.384 0-256 114.616-256 256v1536c0 141.384 114.616 256 256 256z" />
<glyph unicode="&#xe91c;" d="M597.312 896.044c0 29.452 23.878 53.332 53.33 53.332h746.668c29.452 0 53.332-23.878 53.332-53.332 0-29.46-23.878-53.338-53.332-53.338h-746.668c-29.452 0-53.33 23.878-53.33 53.338z" />
<glyph unicode="&#xe91d;" d="M256 1920h1536c141.384 0 256-114.616 256-256v-1536c0-141.384-114.616-256-256-256h-1536c-141.384 0-256 114.616-256 256v1536c0 141.384 114.616 256 256 256z" />
<glyph unicode="&#xe91e;" d="M1077.312 1269.292c0 29.454-23.878 53.332-53.332 53.332-29.46 0-53.338-23.878-53.338-53.332v-320h-320c-29.452 0-53.33-23.878-53.33-53.338 0-29.452 23.878-53.332 53.33-53.332h320v-320c0-29.452 23.878-53.332 53.338-53.332 29.452 0 53.332 23.878 53.332 53.332v320h320c29.452 0 53.332 23.878 53.332 53.332 0 29.46-23.878 53.338-53.332 53.338h-320v320z" />
<glyph unicode="&#xe91f;" d="M256 1920h1536c141.384 0 256-114.616 256-256v-1536c0-141.384-114.616-256-256-256h-1536c-141.384 0-256 114.616-256 256v1536c0 141.384 114.616 256 256 256z" />
<glyph unicode="&#xe920;" d="M1077.312 1269.292c0 29.454-23.878 53.332-53.332 53.332-29.46 0-53.338-23.878-53.338-53.332v-320h-320c-29.452 0-53.33-23.878-53.33-53.338 0-29.452 23.878-53.332 53.33-53.332h320v-320c0-29.452 23.878-53.332 53.338-53.332 29.452 0 53.332 23.878 53.332 53.332v320h320c29.452 0 53.332 23.878 53.332 53.332 0 29.46-23.878 53.338-53.332 53.338h-320v320z" />
<glyph unicode="&#xe921;" horiz-adv-x="1462" d="M1265.59 840.756c85.19 112.822 135.706 253.294 135.706 405.558 0 372.068-301.62 673.686-673.682 673.686-372.066 0-673.686-301.618-673.686-673.686 0-152.266 50.516-292.732 135.704-405.558 30.276-42.122 71.206-86.948 116.514-136.572v0c157.374-172.358 367.572-402.564 367.572-778.288 0-29.766 24.13-53.896 53.896-53.896s53.892 24.13 53.892 53.896c0 375.724 210.198 605.93 367.572 778.288 45.308 49.62 86.24 94.45 116.512 136.572z" />
<glyph unicode="&#xe922;" horiz-adv-x="1462" d="M1265.59 840.756l-29.184 22.038-0.26-0.344-0.252-0.352 29.696-21.344zM189.632 840.756l29.698 21.346-0.252 0.348-0.26 0.344-29.186-22.038zM306.146 704.182l-27.010-24.66 0.33-0.352 26.68 25.012zM306.148 704.182l27.010 24.66-0.33 0.352-26.68-25.012zM1149.078 704.182v0zM1294.778 818.718c89.816 118.952 143.090 267.106 143.090 427.596h-73.142c0-144.040-47.758-276.824-128.318-383.52l58.372-44.076zM1437.868 1246.314c0 392.266-317.992 710.258-710.254 710.258v-73.142c351.864 0 637.11-285.246 637.11-637.114h73.142zM727.614 1956.572c-392.264 0-710.258-317.992-710.258-710.258h73.142c0 351.87 285.246 637.114 637.114 637.114v73.142zM17.358 1246.314c0-160.49 53.274-308.64 143.088-427.594l58.372 44.072c-80.56 106.698-128.318 239.48-128.318 383.52h-73.142zM159.934 819.412c31.786-44.222 74.34-90.752 119.204-139.89l54.014 49.32c-45.754 50.11-85.058 93.232-113.824 133.258l-59.394-42.69zM279.466 679.172v0 0zM279.14 679.522c157.526-172.522 358.008-393.336 358.008-753.628h73.142c0 391.16-219.912 630.754-377.136 802.948l-54.014-49.32zM637.148-74.104c0-49.964 40.502-90.466 90.466-90.466v73.142c-9.568 0-17.324 7.756-17.324 17.324h-73.142zM727.614-164.572c49.96 0 90.464 40.502 90.464 90.466h-73.142c0-9.568-7.754-17.324-17.32-17.324v-73.142zM818.078-74.104c0 360.29 200.48 581.106 358.008 753.628l-54.016 49.32c-157.224-172.192-377.136-411.786-377.136-802.948h73.142zM1176.086 679.522c44.862 49.134 87.416 95.664 119.204 139.89l-59.396 42.686c-28.768-40.024-68.070-83.148-113.824-133.256l54.016-49.32z" />
<glyph unicode="&#xe923;" horiz-adv-x="1462" d="M727.59 1596.642c55.278 0 100.090-44.812 100.090-100.090v-500.452c0-55.278-44.812-100.090-100.090-100.090s-100.090 44.812-100.090 100.090v500.452c0 55.278 44.812 100.090 100.090 100.090z" />
<glyph unicode="&#xe924;" horiz-adv-x="1462" d="M1077.928 1246.338c0-55.278-44.812-100.090-100.090-100.090h-500.452c-55.278 0-100.090 44.812-100.090 100.090s44.812 100.090 100.090 100.090h500.452c55.278 0 100.090-44.812 100.090-100.090z" />
<glyph unicode="&#xe925;" horiz-adv-x="1456" d="M1401.264 1246.316c0-152.268-50.516-292.734-135.702-405.558-30.278-42.124-71.206-86.954-116.516-136.574-157.378-172.356-367.572-402.562-367.572-778.288 0-29.766-24.128-53.894-53.894-53.894s-53.894 24.128-53.894 53.894c0 375.728-210.196 605.934-367.57 778.288-45.308 49.62-86.24 94.45-116.516 136.574-85.188 112.824-135.704 253.29-135.704 405.558 0 372.066 301.618 673.684 673.684 673.684 372.068 0 673.684-301.618 673.684-673.684z" />
<glyph unicode="&#xe926;" horiz-adv-x="1456" d="M1265.562 840.758l-43.014 32.476-0.382-0.506-0.372-0.518 43.768-31.452zM1149.046 704.184v0zM306.114 704.184v0zM189.598 840.758l43.764 31.452-0.37 0.518-0.382 0.502-43.012-32.472zM1308.57 808.28c92.010 121.856 146.588 273.65 146.588 438.034h-107.79c0-140.148-46.452-269.29-124.82-373.080l86.022-64.954zM1188.842 667.842c44.658 48.904 87.984 96.24 120.482 141.462l-87.53 62.906c-28.046-39.030-66.586-81.348-112.548-131.686l79.598-72.682zM835.368-74.106c0 352.978 195.88 569.35 353.474 741.948l-79.598 72.682c-157.152-172.112-381.666-416.158-381.666-814.63h107.79zM727.578-181.894c59.532 0 107.79 48.258 107.79 107.79h-107.79v-107.79zM619.79-74.106c0-59.532 48.258-107.79 107.79-107.79v107.79h-107.79zM266.314 667.842c157.598-172.598 353.476-388.97 353.476-741.948h107.79c0 398.47-224.512 642.516-381.666 814.63l-79.6-72.682zM145.834 809.3c32.5-45.218 75.826-92.554 120.478-141.458l79.6 72.682c-45.964 50.338-84.5 92.656-112.552 131.686l-87.528-62.912zM0 1246.316c0-164.384 54.582-316.178 146.586-438.034l86.024 64.948c-78.37 103.796-124.82 232.938-124.82 373.086h-107.79zM727.578 1973.894c-401.83 0-727.578-325.748-727.578-727.578h107.79c0 342.3 277.49 619.79 619.79 619.79v107.79zM1455.158 1246.316c0 401.83-325.75 727.578-727.578 727.578v-107.79c342.302 0 619.79-277.49 619.79-619.79h107.79z" />
<glyph unicode="&#xe927;" horiz-adv-x="1456" d="M727.564 1596.632v0c55.278 0 100.090-44.812 100.090-100.090v-500.452c0-55.278-44.812-100.090-100.090-100.090v0c-55.278 0-100.090 44.812-100.090 100.090v500.452c0 55.278 44.812 100.090 100.090 100.090z" />
<glyph unicode="&#xe928;" horiz-adv-x="1456" d="M1077.894 1246.33v0c0-55.278-44.812-100.090-100.090-100.090h-500.452c-55.278 0-100.090 44.812-100.090 100.090v0c0 55.278 44.812 100.090 100.090 100.090h500.452c55.278 0 100.090-44.812 100.090-100.090z" />
<glyph unicode="&#xe929;" horiz-adv-x="2764" d="M0 1920h2730.67v-2048h-2730.67v2048z" />
<glyph unicode="&#xe92a;" horiz-adv-x="2764" d="M0 1237.4h2730.67v-1365.328h-2730.67v1365.328z" />
<glyph unicode="&#xe92b;" horiz-adv-x="2764" d="M0 554.598h2730.67v-682.67h-2730.67v682.67z" />
<glyph unicode="&#xe92c;" glyph-name="success" d="M1767.004 1468.406c33.332-33.326 33.332-87.356 0-120.68l-938.664-938.67c-33.326-33.32-87.356-33.32-120.68 0l-426.666 426.67c-33.326 33.32-33.326 87.354 0 120.68s87.354 33.324 120.68 0l366.326-366.326 878.326 878.326c33.32 33.324 87.358 33.324 120.678 0z" />
<glyph unicode="&#xe92d;" horiz-adv-x="1456" d="M1401.264 1246.316c0-152.268-50.516-292.734-135.702-405.558-30.278-42.124-71.206-86.954-116.516-136.574-157.378-172.356-367.572-402.562-367.572-778.288 0-29.766-24.128-53.894-53.894-53.894s-53.894 24.128-53.894 53.894c0 375.728-210.196 605.934-367.57 778.288-45.308 49.62-86.24 94.45-116.516 136.574-85.188 112.824-135.704 253.29-135.704 405.558 0 372.066 301.618 673.684 673.684 673.684 372.068 0 673.684-301.618 673.684-673.684z" />
<glyph unicode="&#xe92e;" horiz-adv-x="1456" d="M1265.562 840.758l-43.014 32.476-0.382-0.506-0.372-0.518 43.768-31.452zM1149.046 704.184v0zM306.114 704.184v0zM189.598 840.758l43.764 31.452-0.37 0.518-0.382 0.502-43.012-32.472zM1308.57 808.28c92.010 121.856 146.588 273.65 146.588 438.034h-107.79c0-140.148-46.452-269.29-124.82-373.080l86.022-64.954zM1188.842 667.842c44.658 48.904 87.984 96.24 120.482 141.462l-87.53 62.906c-28.046-39.030-66.586-81.348-112.548-131.686l79.598-72.682zM835.368-74.106c0 352.978 195.88 569.35 353.474 741.948l-79.598 72.682c-157.152-172.112-381.666-416.158-381.666-814.63h107.79zM727.578-181.894c59.532 0 107.79 48.258 107.79 107.79h-107.79v-107.79zM619.79-74.106c0-59.532 48.258-107.79 107.79-107.79v107.79h-107.79zM266.314 667.842c157.598-172.598 353.476-388.97 353.476-741.948h107.79c0 398.47-224.512 642.516-381.666 814.63l-79.6-72.682zM145.834 809.3c32.5-45.218 75.826-92.554 120.478-141.458l79.6 72.682c-45.964 50.338-84.5 92.656-112.552 131.686l-87.528-62.912zM0 1246.316c0-164.384 54.582-316.178 146.586-438.034l86.024 64.948c-78.37 103.796-124.82 232.938-124.82 373.086h-107.79zM727.578 1973.894c-401.83 0-727.578-325.748-727.578-727.578h107.79c0 342.3 277.49 619.79 619.79 619.79v107.79zM1455.158 1246.316c0 401.83-325.75 727.578-727.578 727.578v-107.79c342.302 0 619.79-277.49 619.79-619.79h107.79z" />
<glyph unicode="&#xe92f;" horiz-adv-x="1456" d="M970.106 1246.316c0-133.944-108.582-242.526-242.526-242.526s-242.526 108.582-242.526 242.526c0 133.944 108.582 242.526 242.526 242.526s242.526-108.582 242.526-242.526z" />
</font>
</defs>
</svg>
