<svg width="24" height="24" viewBox="0 0 24 24" fill="none" xmlns="http://www.w3.org/2000/svg">
<rect width="24" height="24" fill="#1A63F5"/>
<path d="M15.6055 16.2303V8H17.8302V14.4321H21.0001V16.2303H15.6055Z" fill="white"/>
<path d="M7.5849 16.2303L5.90196 10.3054H5.85585C5.87122 10.4591 5.88659 10.6666 5.90196 10.9279C5.91733 11.1891 5.9327 11.4735 5.94806 11.7809C5.96343 12.0806 5.97112 12.3726 5.97112 12.6569V16.2303H4V8H6.96244L8.67997 13.8442H8.72607L10.409 8H13.3715V16.2303H11.3312V12.6223C11.3312 12.3611 11.335 12.0844 11.3427 11.7924C11.3504 11.4927 11.3619 11.2122 11.3773 10.9509C11.3927 10.682 11.4042 10.4706 11.4119 10.3169H11.3658L9.70587 16.2303H7.5849Z" fill="white"/>
</svg>
